ISO-10303-21;
HEADER;

/* File generated by Shapr3D Version 26.82.0.10943 */

FILE_DESCRIPTION(('HOOPS Exchange Step'),'2;1');

FILE_NAME('/private/var/mobile/Containers/Data/Application/4BAA6A96-AB08-4434-80E5-6C712A65BC40/tmp/export/temp_export',
'2026-08-30T19:51:24+08:00',
('mobile'),
('Shapr3D Limited'),
'HOOPS Exchange 2026.3',
'Shapr3D',
'Authorized');

FILE_SCHEMA( ('AP242_MANAGED_MODEL_BASED_3D_ENGINEERING_MIM_LF {1 0 10303 442 1 1 4}') );

ENDSEC;

DATA;
#3=(NAMED_UNIT(*)PLANE_ANGLE_UNIT()SI_UNIT($,.RADIAN.));
#4=PLANE_ANGLE_MEASURE_WITH_UNIT(PLANE_ANGLE_MEASURE(0.0174532925),#3);
#5=(CONVERSION_BASED_UNIT('DEGREE',#4)NAMED_UNIT(#6)PLANE_ANGLE_UNIT());
#6=DIMENSIONAL_EXPONENTS(0.,0.,0.,0.,0.,0.,0.);
#7=(NAMED_UNIT(*)SI_UNIT($,.STERADIAN.)SOLID_ANGLE_UNIT());
#8=(LENGTH_UNIT()NAMED_UNIT(*)SI_UNIT(.MILLI.,.METRE.));
#9=UNCERTAINTY_MEASURE_WITH_UNIT(LENGTH_MEASURE(1.000000E-03),#8,'DISTANCE_ACCURACY_VALUE','Maximum Tolerance applied to model');
#10=(GEOMETRIC_REPRESENTATION_CONTEXT(3)GLOBAL_UNCERTAINTY_ASSIGNED_CONTEXT((#9))GLOBAL_UNIT_ASSIGNED_CONTEXT((#8,#5,#7))REPRESENTATION_CONTEXT('','root'));
#12=CARTESIAN_POINT('',(0.,0.,0.));
#13=DIRECTION('',(0.,0.,1.));
#14=DIRECTION('',(1.,0.,0.));
#15=AXIS2_PLACEMENT_3D('TS3D_PRODUCT_CSYS',#12,#13,#14);
#26=(NAMED_UNIT(*)PLANE_ANGLE_UNIT()SI_UNIT($,.RADIAN.));
#27=PLANE_ANGLE_MEASURE_WITH_UNIT(PLANE_ANGLE_MEASURE(0.0174532925),#26);
#28=(CONVERSION_BASED_UNIT('DEGREE',#27)NAMED_UNIT(#29)PLANE_ANGLE_UNIT());
#29=DIMENSIONAL_EXPONENTS(0.,0.,0.,0.,0.,0.,0.);
#30=(NAMED_UNIT(*)SI_UNIT($,.STERADIAN.)SOLID_ANGLE_UNIT());
#31=(LENGTH_UNIT()NAMED_UNIT(*)SI_UNIT(.MILLI.,.METRE.));
#32=UNCERTAINTY_MEASURE_WITH_UNIT(LENGTH_MEASURE(1.000000E-03),#31,'DISTANCE_ACCURACY_VALUE','Maximum Tolerance applied to model');
#33=(GEOMETRIC_REPRESENTATION_CONTEXT(3)GLOBAL_UNCERTAINTY_ASSIGNED_CONTEXT((#32))GLOBAL_UNIT_ASSIGNED_CONTEXT((#31,#28,#30))REPRESENTATION_CONTEXT('','FrameFilmPro \X2\FF085DF25BFC5165FF09\X0\'));
#45=CARTESIAN_POINT('',(0.,0.,0.));
#46=DIRECTION('',(0.,0.,1.));
#47=DIRECTION('',(1.,0.,-0.));
#48=AXIS2_PLACEMENT_3D('',#45,#46,#47);
#49=ITEM_DEFINED_TRANSFORMATION('','',#48,#15);
#50=(REPRESENTATION_RELATIONSHIP('','',#35,#16)REPRESENTATION_RELATIONSHIP_WITH_TRANSFORMATION(#49)SHAPE_REPRESENTATION_RELATIONSHIP());
#51=NEXT_ASSEMBLY_USAGE_OCCURRENCE('FrameFilmPro \X2\FF085DF25BFC5165FF09\X0\_1','FrameFilmPro \X2\FF085DF25BFC5165FF09\X0\','FrameFilmPro \X2\FF085DF25BFC5165FF09\X0\',#25,#44,$);
#52=PRODUCT_DEFINITION_SHAPE('','',#51);
#53=CONTEXT_DEPENDENT_SHAPE_REPRESENTATION(#50,#52);
#54=(NAMED_UNIT(*)PLANE_ANGLE_UNIT()SI_UNIT($,.RADIAN.));
#55=PLANE_ANGLE_MEASURE_WITH_UNIT(PLANE_ANGLE_MEASURE(0.0174532925),#54);
#56=(CONVERSION_BASED_UNIT('DEGREE',#55)NAMED_UNIT(#57)PLANE_ANGLE_UNIT());
#57=DIMENSIONAL_EXPONENTS(0.,0.,0.,0.,0.,0.,0.);
#58=(NAMED_UNIT(*)SI_UNIT($,.STERADIAN.)SOLID_ANGLE_UNIT());
#59=(LENGTH_UNIT()NAMED_UNIT(*)SI_UNIT(.MILLI.,.METRE.));
#60=UNCERTAINTY_MEASURE_WITH_UNIT(LENGTH_MEASURE(1.000000E-03),#59,'DISTANCE_ACCURACY_VALUE','Maximum Tolerance applied to model');
#61=(GEOMETRIC_REPRESENTATION_CONTEXT(3)GLOBAL_UNCERTAINTY_ASSIGNED_CONTEXT((#60))GLOBAL_UNIT_ASSIGNED_CONTEXT((#59,#56,#58))REPRESENTATION_CONTEXT('','\X2\6309952E\X0\'));
#73=CARTESIAN_POINT('',(0.,0.,0.));
#74=DIRECTION('',(0.,0.,1.));
#75=DIRECTION('',(1.,0.,-0.));
#76=AXIS2_PLACEMENT_3D('',#73,#74,#75);
#77=ITEM_DEFINED_TRANSFORMATION('','',#76,#15);
#78=(REPRESENTATION_RELATIONSHIP('','',#63,#35)REPRESENTATION_RELATIONSHIP_WITH_TRANSFORMATION(#77)SHAPE_REPRESENTATION_RELATIONSHIP());
#79=NEXT_ASSEMBLY_USAGE_OCCURRENCE('\X2\6309952E\X0\_2','\X2\6309952E\X0\','\X2\6309952E\X0\',#44,#72,$);
#80=PRODUCT_DEFINITION_SHAPE('','',#79);
#81=CONTEXT_DEPENDENT_SHAPE_REPRESENTATION(#78,#80);
#82=(NAMED_UNIT(*)PLANE_ANGLE_UNIT()SI_UNIT($,.RADIAN.));
#83=PLANE_ANGLE_MEASURE_WITH_UNIT(PLANE_ANGLE_MEASURE(0.0174532925),#82);
#84=(CONVERSION_BASED_UNIT('DEGREE',#83)NAMED_UNIT(#85)PLANE_ANGLE_UNIT());
#85=DIMENSIONAL_EXPONENTS(0.,0.,0.,0.,0.,0.,0.);
#86=(NAMED_UNIT(*)SI_UNIT($,.STERADIAN.)SOLID_ANGLE_UNIT());
#87=(LENGTH_UNIT()NAMED_UNIT(*)SI_UNIT(.MILLI.,.METRE.));
#88=UNCERTAINTY_MEASURE_WITH_UNIT(LENGTH_MEASURE(1.000000E-05),#87,'DISTANCE_ACCURACY_VALUE','Maximum Tolerance applied to model');
#89=(GEOMETRIC_REPRESENTATION_CONTEXT(3)GLOBAL_UNCERTAINTY_ASSIGNED_CONTEXT((#88))GLOBAL_UNIT_ASSIGNED_CONTEXT((#87,#84,#86))REPRESENTATION_CONTEXT('','button3.68ark'));
#101=CARTESIAN_POINT('',(0.,0.,0.));
#102=DIRECTION('',(0.,0.,1.));
#103=DIRECTION('',(1.,0.,-0.));
#104=AXIS2_PLACEMENT_3D('',#101,#102,#103);
#105=ITEM_DEFINED_TRANSFORMATION('','',#104,#15);
#106=(REPRESENTATION_RELATIONSHIP('','',#91,#63)REPRESENTATION_RELATIONSHIP_WITH_TRANSFORMATION(#105)SHAPE_REPRESENTATION_RELATIONSHIP());
#107=NEXT_ASSEMBLY_USAGE_OCCURRENCE('button3.68ark_3','button3.68ark','button3.68ark',#72,#100,$);
#108=PRODUCT_DEFINITION_SHAPE('','',#107);
#109=CONTEXT_DEPENDENT_SHAPE_REPRESENTATION(#106,#108);
#111=CARTESIAN_POINT('',(29.25,3.704690062,-3.7));
#112=DIRECTION('',(-1.,-0.,0.));
#113=DIRECTION('',(0.,-1.,0.));
#114=AXIS2_PLACEMENT_3D('',#111,#112,#113);
#115=PLANE('',#114);
#116=CARTESIAN_POINT('',(29.25,20.287345031,-2.150026102));
#117=VERTEX_POINT('',#116);
#118=CARTESIAN_POINT('',(29.25,19.287345031,-1.150026102));
#119=VERTEX_POINT('',#118);
#120=CARTESIAN_POINT('',(29.25,19.287345031,-2.150026102));
#121=DIRECTION('',(1.,0.,-0.));
#122=DIRECTION('',(0.,-1.,0.));
#123=AXIS2_PLACEMENT_3D('',#120,#121,#122);
#124=CIRCLE('',#123,1.);
#125=EDGE_CURVE('',#117,#119,#124,.T.);
#126=ORIENTED_EDGE('',*,*,#125,.F.);
#127=CARTESIAN_POINT('',(29.25,19.287345031,-3.150026102));
#128=VERTEX_POINT('',#127);
#129=CARTESIAN_POINT('',(29.25,19.287345031,-2.150026102));
#130=DIRECTION('',(1.,0.,-0.));
#131=DIRECTION('',(0.,-1.,0.));
#132=AXIS2_PLACEMENT_3D('',#129,#130,#131);
#133=CIRCLE('',#132,1.);
#134=EDGE_CURVE('',#128,#117,#133,.T.);
#135=ORIENTED_EDGE('',*,*,#134,.F.);
#136=CARTESIAN_POINT('',(29.25,20.587345031,-3.150026102));
#137=VERTEX_POINT('',#136);
#138=CARTESIAN_POINT('',(29.25,20.587345031,-3.150026102));
#139=DIRECTION('',(0.,-1.,-0.));
#140=VECTOR('',#139,1.3);
#141=LINE('',#138,#140);
#142=EDGE_CURVE('',#137,#128,#141,.T.);
#143=ORIENTED_EDGE('',*,*,#142,.F.);
#144=CARTESIAN_POINT('',(29.25,21.087345031,-2.650026102));
#145=VERTEX_POINT('',#144);
#146=CARTESIAN_POINT('',(29.25,20.587345031,-2.650026102));
#147=DIRECTION('',(1.,0.,-0.));
#148=DIRECTION('',(0.,-1.,0.));
#149=AXIS2_PLACEMENT_3D('',#146,#147,#148);
#150=CIRCLE('',#149,0.5);
#151=EDGE_CURVE('',#137,#145,#150,.T.);
#152=ORIENTED_EDGE('',*,*,#151,.T.);
#153=CARTESIAN_POINT('',(29.25,21.087345031,-1.650026102));
#154=VERTEX_POINT('',#153);
#155=CARTESIAN_POINT('',(29.25,21.087345031,-2.650026102));
#156=DIRECTION('',(0.,0.,1.));
#157=VECTOR('',#156,1.);
#158=LINE('',#155,#157);
#159=EDGE_CURVE('',#145,#154,#158,.T.);
#160=ORIENTED_EDGE('',*,*,#159,.T.);
#161=CARTESIAN_POINT('',(29.25,20.587345031,-1.150026102));
#162=VERTEX_POINT('',#161);
#163=CARTESIAN_POINT('',(29.25,20.587345031,-1.650026102));
#164=DIRECTION('',(1.,0.,-0.));
#165=DIRECTION('',(0.,-1.,0.));
#166=AXIS2_PLACEMENT_3D('',#163,#164,#165);
#167=CIRCLE('',#166,0.5);
#168=EDGE_CURVE('',#154,#162,#167,.T.);
#169=ORIENTED_EDGE('',*,*,#168,.T.);
#170=CARTESIAN_POINT('',(29.25,20.587345031,-1.150026102));
#171=DIRECTION('',(0.,-1.,0.));
#172=VECTOR('',#171,1.3);
#173=LINE('',#170,#172);
#174=EDGE_CURVE('',#162,#119,#173,.T.);
#175=ORIENTED_EDGE('',*,*,#174,.T.);
#176=EDGE_LOOP('',(#126,#135,#143,#152,#160,#169,#175));
#177=FACE_BOUND('',#176,.T.);
#178=ADVANCED_FACE('',(#177),#115,.F.);
#179=CARTESIAN_POINT('',(28.75,3.704690062,-3.7));
#180=DIRECTION('',(-1.,-0.,0.));
#181=DIRECTION('',(0.,-1.,0.));
#182=AXIS2_PLACEMENT_3D('',#179,#180,#181);
#183=PLANE('',#182);
#184=CARTESIAN_POINT('',(28.75,20.587345031,-3.150026102));
#185=VERTEX_POINT('',#184);
#186=CARTESIAN_POINT('',(28.75,14.387345031,-3.150026102));
#187=VERTEX_POINT('',#186);
#188=CARTESIAN_POINT('',(28.75,20.587345031,-3.150026102));
#189=DIRECTION('',(0.,-1.,-0.));
#190=VECTOR('',#189,6.2);
#191=LINE('',#188,#190);
#192=EDGE_CURVE('',#185,#187,#191,.T.);
#193=ORIENTED_EDGE('',*,*,#192,.T.);
#194=CARTESIAN_POINT('',(28.75,13.887345031,-2.650026102));
#195=VERTEX_POINT('',#194);
#196=CARTESIAN_POINT('',(28.75,14.387345031,-2.650026102));
#197=DIRECTION('',(-1.,-0.,0.));
#198=DIRECTION('',(0.,-1.,0.));
#199=AXIS2_PLACEMENT_3D('',#196,#197,#198);
#200=CIRCLE('',#199,0.5);
#201=EDGE_CURVE('',#187,#195,#200,.T.);
#202=ORIENTED_EDGE('',*,*,#201,.T.);
#203=CARTESIAN_POINT('',(28.75,13.887345031,-1.650026102));
#204=VERTEX_POINT('',#203);
#205=CARTESIAN_POINT('',(28.75,13.887345031,-1.650026102));
#206=DIRECTION('',(0.,0.,-1.));
#207=VECTOR('',#206,1.);
#208=LINE('',#205,#207);
#209=EDGE_CURVE('',#204,#195,#208,.T.);
#210=ORIENTED_EDGE('',*,*,#209,.F.);
#211=CARTESIAN_POINT('',(28.75,14.387345031,-1.150026102));
#212=VERTEX_POINT('',#211);
#213=CARTESIAN_POINT('',(28.75,14.387345031,-1.650026102));
#214=DIRECTION('',(-1.,-0.,0.));
#215=DIRECTION('',(0.,-1.,0.));
#216=AXIS2_PLACEMENT_3D('',#213,#214,#215);
#217=CIRCLE('',#216,0.5);
#218=EDGE_CURVE('',#204,#212,#217,.T.);
#219=ORIENTED_EDGE('',*,*,#218,.T.);
#220=CARTESIAN_POINT('',(28.75,20.587345031,-1.150026102));
#221=VERTEX_POINT('',#220);
#222=CARTESIAN_POINT('',(28.75,20.587345031,-1.150026102));
#223=DIRECTION('',(0.,-1.,0.));
#224=VECTOR('',#223,6.2);
#225=LINE('',#222,#224);
#226=EDGE_CURVE('',#221,#212,#225,.T.);
#227=ORIENTED_EDGE('',*,*,#226,.F.);
#228=CARTESIAN_POINT('',(28.75,21.087345031,-1.650026102));
#229=VERTEX_POINT('',#228);
#230=CARTESIAN_POINT('',(28.75,20.587345031,-1.650026102));
#231=DIRECTION('',(-1.,-0.,0.));
#232=DIRECTION('',(0.,-1.,0.));
#233=AXIS2_PLACEMENT_3D('',#230,#231,#232);
#234=CIRCLE('',#233,0.5);
#235=EDGE_CURVE('',#221,#229,#234,.T.);
#236=ORIENTED_EDGE('',*,*,#235,.T.);
#237=CARTESIAN_POINT('',(28.75,21.087345031,-2.650026102));
#238=VERTEX_POINT('',#237);
#239=CARTESIAN_POINT('',(28.75,21.087345031,-2.650026102));
#240=DIRECTION('',(0.,0.,1.));
#241=VECTOR('',#240,1.);
#242=LINE('',#239,#241);
#243=EDGE_CURVE('',#238,#229,#242,.T.);
#244=ORIENTED_EDGE('',*,*,#243,.F.);
#245=CARTESIAN_POINT('',(28.75,20.587345031,-2.650026102));
#246=DIRECTION('',(-1.,-0.,0.));
#247=DIRECTION('',(0.,-1.,0.));
#248=AXIS2_PLACEMENT_3D('',#245,#246,#247);
#249=CIRCLE('',#248,0.5);
#250=EDGE_CURVE('',#238,#185,#249,.T.);
#251=ORIENTED_EDGE('',*,*,#250,.T.);
#252=EDGE_LOOP('',(#193,#202,#210,#219,#227,#236,#244,#251));
#253=FACE_BOUND('',#252,.T.);
#254=ADVANCED_FACE('',(#253),#183,.T.);
#255=CARTESIAN_POINT('',(29.25,3.704690062,-3.7));
#256=DIRECTION('',(-1.,-0.,0.));
#257=DIRECTION('',(0.,-1.,0.));
#258=AXIS2_PLACEMENT_3D('',#255,#256,#257);
#259=PLANE('',#258);
#260=CARTESIAN_POINT('',(29.25,13.887345031,-1.650026102));
#261=VERTEX_POINT('',#260);
#262=CARTESIAN_POINT('',(29.25,13.887345031,-2.650026102));
#263=VERTEX_POINT('',#262);
#264=CARTESIAN_POINT('',(29.25,13.887345031,-1.650026102));
#265=DIRECTION('',(0.,0.,-1.));
#266=VECTOR('',#265,1.);
#267=LINE('',#264,#266);
#268=EDGE_CURVE('',#261,#263,#267,.T.);
#269=ORIENTED_EDGE('',*,*,#268,.T.);
#270=CARTESIAN_POINT('',(29.25,14.387345031,-3.150026102));
#271=VERTEX_POINT('',#270);
#272=CARTESIAN_POINT('',(29.25,14.387345031,-2.650026102));
#273=DIRECTION('',(1.,0.,-0.));
#274=DIRECTION('',(0.,-1.,0.));
#275=AXIS2_PLACEMENT_3D('',#272,#273,#274);
#276=CIRCLE('',#275,0.5);
#277=EDGE_CURVE('',#263,#271,#276,.T.);
#278=ORIENTED_EDGE('',*,*,#277,.T.);
#279=CARTESIAN_POINT('',(29.25,15.687345031,-3.150026102));
#280=VERTEX_POINT('',#279);
#281=CARTESIAN_POINT('',(29.25,15.687345031,-3.150026102));
#282=DIRECTION('',(0.,-1.,-0.));
#283=VECTOR('',#282,1.3);
#284=LINE('',#281,#283);
#285=EDGE_CURVE('',#280,#271,#284,.T.);
#286=ORIENTED_EDGE('',*,*,#285,.F.);
#287=CARTESIAN_POINT('',(29.25,14.687345031,-2.150026102));
#288=VERTEX_POINT('',#287);
#289=CARTESIAN_POINT('',(29.25,15.687345031,-2.150026102));
#290=DIRECTION('',(1.,0.,-0.));
#291=DIRECTION('',(0.,-1.,0.));
#292=AXIS2_PLACEMENT_3D('',#289,#290,#291);
#293=CIRCLE('',#292,1.);
#294=EDGE_CURVE('',#288,#280,#293,.T.);
#295=ORIENTED_EDGE('',*,*,#294,.F.);
#296=CARTESIAN_POINT('',(29.25,15.687345031,-1.150026102));
#297=VERTEX_POINT('',#296);
#298=CARTESIAN_POINT('',(29.25,15.687345031,-2.150026102));
#299=DIRECTION('',(1.,0.,-0.));
#300=DIRECTION('',(0.,-1.,0.));
#301=AXIS2_PLACEMENT_3D('',#298,#299,#300);
#302=CIRCLE('',#301,1.);
#303=EDGE_CURVE('',#297,#288,#302,.T.);
#304=ORIENTED_EDGE('',*,*,#303,.F.);
#305=CARTESIAN_POINT('',(29.25,14.387345031,-1.150026102));
#306=VERTEX_POINT('',#305);
#307=CARTESIAN_POINT('',(29.25,15.687345031,-1.150026102));
#308=DIRECTION('',(0.,-1.,0.));
#309=VECTOR('',#308,1.3);
#310=LINE('',#307,#309);
#311=EDGE_CURVE('',#297,#306,#310,.T.);
#312=ORIENTED_EDGE('',*,*,#311,.T.);
#313=CARTESIAN_POINT('',(29.25,14.387345031,-1.650026102));
#314=DIRECTION('',(1.,0.,-0.));
#315=DIRECTION('',(0.,-1.,0.));
#316=AXIS2_PLACEMENT_3D('',#313,#314,#315);
#317=CIRCLE('',#316,0.5);
#318=EDGE_CURVE('',#306,#261,#317,.T.);
#319=ORIENTED_EDGE('',*,*,#318,.T.);
#320=EDGE_LOOP('',(#269,#278,#286,#295,#304,#312,#319));
#321=FACE_BOUND('',#320,.T.);
#322=ADVANCED_FACE('',(#321),#259,.F.);
#323=CARTESIAN_POINT('',(29.25,13.887345031,-3.050026102));
#324=DIRECTION('',(-0.,1.,0.));
#325=DIRECTION('',(-1.,-0.,0.));
#326=AXIS2_PLACEMENT_3D('',#323,#324,#325);
#327=PLANE('',#326);
#328=ORIENTED_EDGE('',*,*,#209,.T.);
#329=CARTESIAN_POINT('',(28.75,13.887345031,-2.650026102));
#330=DIRECTION('',(1.,0.,-0.));
#331=VECTOR('',#330,0.5);
#332=LINE('',#329,#331);
#333=EDGE_CURVE('',#195,#263,#332,.T.);
#334=ORIENTED_EDGE('',*,*,#333,.T.);
#335=ORIENTED_EDGE('',*,*,#268,.F.);
#336=CARTESIAN_POINT('',(29.25,13.887345031,-1.650026102));
#337=DIRECTION('',(-1.,-0.,0.));
#338=VECTOR('',#337,0.5);
#339=LINE('',#336,#338);
#340=EDGE_CURVE('',#261,#204,#339,.T.);
#341=ORIENTED_EDGE('',*,*,#340,.T.);
#342=EDGE_LOOP('',(#328,#334,#335,#341));
#343=FACE_BOUND('',#342,.T.);
#344=ADVANCED_FACE('',(#343),#327,.F.);
#345=CARTESIAN_POINT('',(29.25,17.487345031,-1.150026102));
#346=DIRECTION('',(0.,-0.,-1.));
#347=DIRECTION('',(-0.,-1.,0.));
#348=AXIS2_PLACEMENT_3D('',#345,#346,#347);
#349=PLANE('',#348);
#350=ORIENTED_EDGE('',*,*,#174,.F.);
#351=CARTESIAN_POINT('',(29.25,20.587345031,-1.150026102));
#352=DIRECTION('',(-1.,-0.,0.));
#353=VECTOR('',#352,0.5);
#354=LINE('',#351,#353);
#355=EDGE_CURVE('',#162,#221,#354,.T.);
#356=ORIENTED_EDGE('',*,*,#355,.T.);
#357=ORIENTED_EDGE('',*,*,#226,.T.);
#358=CARTESIAN_POINT('',(28.75,14.387345031,-1.150026102));
#359=DIRECTION('',(1.,0.,-0.));
#360=VECTOR('',#359,0.5);
#361=LINE('',#358,#360);
#362=EDGE_CURVE('',#212,#306,#361,.T.);
#363=ORIENTED_EDGE('',*,*,#362,.T.);
#364=ORIENTED_EDGE('',*,*,#311,.F.);
#365=CARTESIAN_POINT('',(34.75,15.687345031,-1.150026102));
#366=VERTEX_POINT('',#365);
#367=CARTESIAN_POINT('',(34.75,15.687345031,-1.150026102));
#368=DIRECTION('',(-1.,-0.,-0.));
#369=VECTOR('',#368,5.5);
#370=LINE('',#367,#369);
#371=EDGE_CURVE('',#366,#297,#370,.T.);
#372=ORIENTED_EDGE('',*,*,#371,.F.);
#373=CARTESIAN_POINT('',(34.75,19.287345031,-1.150026102));
#374=VERTEX_POINT('',#373);
#375=CARTESIAN_POINT('',(34.75,19.287345031,-1.150026102));
#376=DIRECTION('',(0.,-1.,0.));
#377=VECTOR('',#376,3.6);
#378=LINE('',#375,#377);
#379=EDGE_CURVE('',#374,#366,#378,.T.);
#380=ORIENTED_EDGE('',*,*,#379,.F.);
#381=CARTESIAN_POINT('',(34.75,19.287345031,-1.150026102));
#382=DIRECTION('',(-1.,-0.,0.));
#383=VECTOR('',#382,5.5);
#384=LINE('',#381,#383);
#385=EDGE_CURVE('',#374,#119,#384,.T.);
#386=ORIENTED_EDGE('',*,*,#385,.T.);
#387=EDGE_LOOP('',(#350,#356,#357,#363,#364,#372,#380,#386));
#388=FACE_BOUND('',#387,.T.);
#389=ADVANCED_FACE('',(#388),#349,.F.);
#390=CARTESIAN_POINT('',(29.25,21.087345031,-2.050026102));
#391=DIRECTION('',(0.,-1.,0.));
#392=DIRECTION('',(1.,0.,0.));
#393=AXIS2_PLACEMENT_3D('',#390,#391,#392);
#394=PLANE('',#393);
#395=ORIENTED_EDGE('',*,*,#243,.T.);
#396=CARTESIAN_POINT('',(28.75,21.087345031,-1.650026102));
#397=DIRECTION('',(1.,0.,-0.));
#398=VECTOR('',#397,0.5);
#399=LINE('',#396,#398);
#400=EDGE_CURVE('',#229,#154,#399,.T.);
#401=ORIENTED_EDGE('',*,*,#400,.T.);
#402=ORIENTED_EDGE('',*,*,#159,.F.);
#403=CARTESIAN_POINT('',(29.25,21.087345031,-2.650026102));
#404=DIRECTION('',(-1.,-0.,0.));
#405=VECTOR('',#404,0.5);
#406=LINE('',#403,#405);
#407=EDGE_CURVE('',#145,#238,#406,.T.);
#408=ORIENTED_EDGE('',*,*,#407,.T.);
#409=EDGE_LOOP('',(#395,#401,#402,#408));
#410=FACE_BOUND('',#409,.T.);
#411=ADVANCED_FACE('',(#410),#394,.F.);
#412=CARTESIAN_POINT('',(29.25,17.487345031,-3.150026102));
#413=DIRECTION('',(-0.,0.,-1.));
#414=DIRECTION('',(-0.,-1.,-0.));
#415=AXIS2_PLACEMENT_3D('',#412,#413,#414);
#416=PLANE('',#415);
#417=ORIENTED_EDGE('',*,*,#285,.T.);
#418=CARTESIAN_POINT('',(29.25,14.387345031,-3.150026102));
#419=DIRECTION('',(-1.,-0.,0.));
#420=VECTOR('',#419,0.5);
#421=LINE('',#418,#420);
#422=EDGE_CURVE('',#271,#187,#421,.T.);
#423=ORIENTED_EDGE('',*,*,#422,.T.);
#424=ORIENTED_EDGE('',*,*,#192,.F.);
#425=CARTESIAN_POINT('',(28.75,20.587345031,-3.150026102));
#426=DIRECTION('',(1.,0.,-0.));
#427=VECTOR('',#426,0.5);
#428=LINE('',#425,#427);
#429=EDGE_CURVE('',#185,#137,#428,.T.);
#430=ORIENTED_EDGE('',*,*,#429,.T.);
#431=ORIENTED_EDGE('',*,*,#142,.T.);
#432=CARTESIAN_POINT('',(34.75,19.287345031,-3.150026102));
#433=VERTEX_POINT('',#432);
#434=CARTESIAN_POINT('',(34.75,19.287345031,-3.150026102));
#435=DIRECTION('',(-1.,-0.,-0.));
#436=VECTOR('',#435,5.5);
#437=LINE('',#434,#436);
#438=EDGE_CURVE('',#433,#128,#437,.T.);
#439=ORIENTED_EDGE('',*,*,#438,.F.);
#440=CARTESIAN_POINT('',(34.75,15.687345031,-3.150026102));
#441=VERTEX_POINT('',#440);
#442=CARTESIAN_POINT('',(34.75,15.687345031,-3.150026102));
#443=DIRECTION('',(-0.,1.,0.));
#444=VECTOR('',#443,3.6);
#445=LINE('',#442,#444);
#446=EDGE_CURVE('',#441,#433,#445,.T.);
#447=ORIENTED_EDGE('',*,*,#446,.F.);
#448=CARTESIAN_POINT('',(34.75,15.687345031,-3.150026102));
#449=DIRECTION('',(-1.,-0.,0.));
#450=VECTOR('',#449,5.5);
#451=LINE('',#448,#450);
#452=EDGE_CURVE('',#441,#280,#451,.T.);
#453=ORIENTED_EDGE('',*,*,#452,.T.);
#454=EDGE_LOOP('',(#417,#423,#424,#430,#431,#439,#447,#453));
#455=FACE_BOUND('',#454,.T.);
#456=ADVANCED_FACE('',(#455),#416,.T.);
#457=CARTESIAN_POINT('',(29.25,14.387345031,-2.650026102));
#458=DIRECTION('',(1.,0.,0.));
#459=DIRECTION('',(-0.,1.,0.));
#460=AXIS2_PLACEMENT_3D('',#457,#458,#459);
#461=CYLINDRICAL_SURFACE('',#460,0.5);
#462=ORIENTED_EDGE('',*,*,#277,.F.);
#463=ORIENTED_EDGE('',*,*,#333,.F.);
#464=ORIENTED_EDGE('',*,*,#201,.F.);
#465=ORIENTED_EDGE('',*,*,#422,.F.);
#466=EDGE_LOOP('',(#462,#463,#464,#465));
#467=FACE_BOUND('',#466,.T.);
#468=ADVANCED_FACE('',(#467),#461,.T.);
#469=CARTESIAN_POINT('',(29.25,20.587345031,-1.650026102));
#470=DIRECTION('',(-1.,-0.,0.));
#471=DIRECTION('',(0.,-1.,0.));
#472=AXIS2_PLACEMENT_3D('',#469,#470,#471);
#473=CYLINDRICAL_SURFACE('',#472,0.5);
#474=ORIENTED_EDGE('',*,*,#168,.F.);
#475=ORIENTED_EDGE('',*,*,#400,.F.);
#476=ORIENTED_EDGE('',*,*,#235,.F.);
#477=ORIENTED_EDGE('',*,*,#355,.F.);
#478=EDGE_LOOP('',(#474,#475,#476,#477));
#479=FACE_BOUND('',#478,.T.);
#480=ADVANCED_FACE('',(#479),#473,.T.);
#481=CARTESIAN_POINT('',(29.25,14.387345031,-1.650026102));
#482=DIRECTION('',(-1.,-0.,0.));
#483=DIRECTION('',(0.,-1.,0.));
#484=AXIS2_PLACEMENT_3D('',#481,#482,#483);
#485=CYLINDRICAL_SURFACE('',#484,0.5);
#486=ORIENTED_EDGE('',*,*,#318,.F.);
#487=ORIENTED_EDGE('',*,*,#362,.F.);
#488=ORIENTED_EDGE('',*,*,#218,.F.);
#489=ORIENTED_EDGE('',*,*,#340,.F.);
#490=EDGE_LOOP('',(#486,#487,#488,#489));
#491=FACE_BOUND('',#490,.T.);
#492=ADVANCED_FACE('',(#491),#485,.T.);
#493=CARTESIAN_POINT('',(29.25,20.587345031,-2.650026102));
#494=DIRECTION('',(1.,0.,0.));
#495=DIRECTION('',(-0.,1.,0.));
#496=AXIS2_PLACEMENT_3D('',#493,#494,#495);
#497=CYLINDRICAL_SURFACE('',#496,0.5);
#498=ORIENTED_EDGE('',*,*,#151,.F.);
#499=ORIENTED_EDGE('',*,*,#429,.F.);
#500=ORIENTED_EDGE('',*,*,#250,.F.);
#501=ORIENTED_EDGE('',*,*,#407,.F.);
#502=EDGE_LOOP('',(#498,#499,#500,#501));
#503=FACE_BOUND('',#502,.T.);
#504=ADVANCED_FACE('',(#503),#497,.T.);
#505=CARTESIAN_POINT('',(29.25,19.287345031,-2.150026102));
#506=DIRECTION('',(1.,0.,0.));
#507=DIRECTION('',(-0.,1.,0.));
#508=AXIS2_PLACEMENT_3D('',#505,#506,#507);
#509=CYLINDRICAL_SURFACE('',#508,1.);
#510=CARTESIAN_POINT('',(34.75,20.287345031,-2.150026102));
#511=VERTEX_POINT('',#510);
#512=CARTESIAN_POINT('',(34.75,20.287345031,-2.150026102));
#513=DIRECTION('',(-1.,-0.,-0.));
#514=VECTOR('',#513,5.5);
#515=LINE('',#512,#514);
#516=EDGE_CURVE('',#511,#117,#515,.T.);
#517=ORIENTED_EDGE('',*,*,#516,.T.);
#518=ORIENTED_EDGE('',*,*,#125,.T.);
#519=ORIENTED_EDGE('',*,*,#385,.F.);
#520=CARTESIAN_POINT('',(34.75,19.287345031,-2.150026102));
#521=DIRECTION('',(1.,0.,0.));
#522=DIRECTION('',(-0.,1.,0.));
#523=AXIS2_PLACEMENT_3D('',#520,#521,#522);
#524=CIRCLE('',#523,1.);
#525=EDGE_CURVE('',#511,#374,#524,.T.);
#526=ORIENTED_EDGE('',*,*,#525,.F.);
#527=EDGE_LOOP('',(#517,#518,#519,#526));
#528=FACE_BOUND('',#527,.T.);
#529=ADVANCED_FACE('',(#528),#509,.T.);
#530=CARTESIAN_POINT('',(30.45,15.687345031,-2.150026102));
#531=DIRECTION('',(-1.,-0.,0.));
#532=DIRECTION('',(0.,-1.,0.));
#533=AXIS2_PLACEMENT_3D('',#530,#531,#532);
#534=CYLINDRICAL_SURFACE('',#533,1.);
#535=CARTESIAN_POINT('',(34.75,14.687345031,-2.150026102));
#536=VERTEX_POINT('',#535);
#537=CARTESIAN_POINT('',(29.25,14.687345031,-2.150026102));
#538=DIRECTION('',(1.,0.,-0.));
#539=VECTOR('',#538,5.5);
#540=LINE('',#537,#539);
#541=EDGE_CURVE('',#288,#536,#540,.T.);
#542=ORIENTED_EDGE('',*,*,#541,.T.);
#543=CARTESIAN_POINT('',(34.75,15.687345031,-2.150026102));
#544=DIRECTION('',(1.,0.,0.));
#545=DIRECTION('',(-0.,1.,0.));
#546=AXIS2_PLACEMENT_3D('',#543,#544,#545);
#547=CIRCLE('',#546,1.);
#548=EDGE_CURVE('',#366,#536,#547,.T.);
#549=ORIENTED_EDGE('',*,*,#548,.F.);
#550=ORIENTED_EDGE('',*,*,#371,.T.);
#551=ORIENTED_EDGE('',*,*,#303,.T.);
#552=EDGE_LOOP('',(#542,#549,#550,#551));
#553=FACE_BOUND('',#552,.T.);
#554=ADVANCED_FACE('',(#553),#534,.T.);
#555=CARTESIAN_POINT('',(34.75,3.704690062,-3.7));
#556=DIRECTION('',(1.,0.,0.));
#557=DIRECTION('',(-0.,1.,0.));
#558=AXIS2_PLACEMENT_3D('',#555,#556,#557);
#559=PLANE('',#558);
#560=ORIENTED_EDGE('',*,*,#446,.T.);
#561=CARTESIAN_POINT('',(34.75,19.287345031,-2.150026102));
#562=DIRECTION('',(1.,0.,0.));
#563=DIRECTION('',(-0.,1.,0.));
#564=AXIS2_PLACEMENT_3D('',#561,#562,#563);
#565=CIRCLE('',#564,1.);
#566=EDGE_CURVE('',#433,#511,#565,.T.);
#567=ORIENTED_EDGE('',*,*,#566,.T.);
#568=ORIENTED_EDGE('',*,*,#525,.T.);
#569=ORIENTED_EDGE('',*,*,#379,.T.);
#570=ORIENTED_EDGE('',*,*,#548,.T.);
#571=CARTESIAN_POINT('',(34.75,15.687345031,-2.150026102));
#572=DIRECTION('',(1.,0.,0.));
#573=DIRECTION('',(-0.,1.,0.));
#574=AXIS2_PLACEMENT_3D('',#571,#572,#573);
#575=CIRCLE('',#574,1.);
#576=EDGE_CURVE('',#536,#441,#575,.T.);
#577=ORIENTED_EDGE('',*,*,#576,.T.);
#578=EDGE_LOOP('',(#560,#567,#568,#569,#570,#577));
#579=FACE_BOUND('',#578,.T.);
#580=ADVANCED_FACE('',(#579),#559,.T.);
#581=CARTESIAN_POINT('',(29.25,19.287345031,-2.150026102));
#582=DIRECTION('',(1.,0.,0.));
#583=DIRECTION('',(-0.,1.,0.));
#584=AXIS2_PLACEMENT_3D('',#581,#582,#583);
#585=CYLINDRICAL_SURFACE('',#584,1.);
#586=ORIENTED_EDGE('',*,*,#516,.F.);
#587=ORIENTED_EDGE('',*,*,#566,.F.);
#588=ORIENTED_EDGE('',*,*,#438,.T.);
#589=ORIENTED_EDGE('',*,*,#134,.T.);
#590=EDGE_LOOP('',(#586,#587,#588,#589));
#591=FACE_BOUND('',#590,.T.);
#592=ADVANCED_FACE('',(#591),#585,.T.);
#593=CARTESIAN_POINT('',(30.45,15.687345031,-2.150026102));
#594=DIRECTION('',(-1.,-0.,0.));
#595=DIRECTION('',(0.,-1.,0.));
#596=AXIS2_PLACEMENT_3D('',#593,#594,#595);
#597=CYLINDRICAL_SURFACE('',#596,1.);
#598=ORIENTED_EDGE('',*,*,#541,.F.);
#599=ORIENTED_EDGE('',*,*,#294,.T.);
#600=ORIENTED_EDGE('',*,*,#452,.F.);
#601=ORIENTED_EDGE('',*,*,#576,.F.);
#602=EDGE_LOOP('',(#598,#599,#600,#601));
#603=FACE_BOUND('',#602,.T.);
#604=ADVANCED_FACE('',(#603),#597,.T.);
#605=CLOSED_SHELL('',(#178,#254,#322,#344,#389,#411,#456,#468,#480,#492,#504,#529,#554,#580,#592,#604));
#606=MANIFOLD_SOLID_BREP('up (1)',#605);
#607=COLOUR_RGB('',0.898039222,0.180392161,0.180392161);
#608=FILL_AREA_STYLE_COLOUR('',#607);
#609=FILL_AREA_STYLE('',(#608));
#610=SURFACE_STYLE_FILL_AREA(#609);
#611=SURFACE_SIDE_STYLE('',(#610));
#612=SURFACE_STYLE_USAGE(.BOTH.,#611);
#613=PRESENTATION_STYLE_ASSIGNMENT((#612));
#110=STYLED_ITEM('',(#613),#606);
#615=CARTESIAN_POINT('',(29.25,15.704690062,-3.7));
#616=DIRECTION('',(-1.,-0.,0.));
#617=DIRECTION('',(0.,-1.,0.));
#618=AXIS2_PLACEMENT_3D('',#615,#616,#617);
#619=PLANE('',#618);
#620=CARTESIAN_POINT('',(29.25,32.287345031,-2.150026102));
#621=VERTEX_POINT('',#620);
#622=CARTESIAN_POINT('',(29.25,31.287345031,-1.150026102));
#623=VERTEX_POINT('',#622);
#624=CARTESIAN_POINT('',(29.25,31.287345031,-2.150026102));
#625=DIRECTION('',(1.,0.,-0.));
#626=DIRECTION('',(0.,-1.,0.));
#627=AXIS2_PLACEMENT_3D('',#624,#625,#626);
#628=CIRCLE('',#627,1.);
#629=EDGE_CURVE('',#621,#623,#628,.T.);
#630=ORIENTED_EDGE('',*,*,#629,.F.);
#631=CARTESIAN_POINT('',(29.25,31.287345031,-3.150026102));
#632=VERTEX_POINT('',#631);
#633=CARTESIAN_POINT('',(29.25,31.287345031,-2.150026102));
#634=DIRECTION('',(1.,0.,-0.));
#635=DIRECTION('',(0.,-1.,0.));
#636=AXIS2_PLACEMENT_3D('',#633,#634,#635);
#637=CIRCLE('',#636,1.);
#638=EDGE_CURVE('',#632,#621,#637,.T.);
#639=ORIENTED_EDGE('',*,*,#638,.F.);
#640=CARTESIAN_POINT('',(29.25,32.587345031,-3.150026102));
#641=VERTEX_POINT('',#640);
#642=CARTESIAN_POINT('',(29.25,32.587345031,-3.150026102));
#643=DIRECTION('',(0.,-1.,-0.));
#644=VECTOR('',#643,1.3);
#645=LINE('',#642,#644);
#646=EDGE_CURVE('',#641,#632,#645,.T.);
#647=ORIENTED_EDGE('',*,*,#646,.F.);
#648=CARTESIAN_POINT('',(29.25,33.087345031,-2.650026102));
#649=VERTEX_POINT('',#648);
#650=CARTESIAN_POINT('',(29.25,32.587345031,-2.650026102));
#651=DIRECTION('',(1.,0.,-0.));
#652=DIRECTION('',(0.,-1.,0.));
#653=AXIS2_PLACEMENT_3D('',#650,#651,#652);
#654=CIRCLE('',#653,0.5);
#655=EDGE_CURVE('',#641,#649,#654,.T.);
#656=ORIENTED_EDGE('',*,*,#655,.T.);
#657=CARTESIAN_POINT('',(29.25,33.087345031,-1.650026102));
#658=VERTEX_POINT('',#657);
#659=CARTESIAN_POINT('',(29.25,33.087345031,-2.650026102));
#660=DIRECTION('',(0.,0.,1.));
#661=VECTOR('',#660,1.);
#662=LINE('',#659,#661);
#663=EDGE_CURVE('',#649,#658,#662,.T.);
#664=ORIENTED_EDGE('',*,*,#663,.T.);
#665=CARTESIAN_POINT('',(29.25,32.587345031,-1.150026102));
#666=VERTEX_POINT('',#665);
#667=CARTESIAN_POINT('',(29.25,32.587345031,-1.650026102));
#668=DIRECTION('',(1.,0.,-0.));
#669=DIRECTION('',(0.,-1.,0.));
#670=AXIS2_PLACEMENT_3D('',#667,#668,#669);
#671=CIRCLE('',#670,0.5);
#672=EDGE_CURVE('',#658,#666,#671,.T.);
#673=ORIENTED_EDGE('',*,*,#672,.T.);
#674=CARTESIAN_POINT('',(29.25,32.587345031,-1.150026102));
#675=DIRECTION('',(0.,-1.,0.));
#676=VECTOR('',#675,1.3);
#677=LINE('',#674,#676);
#678=EDGE_CURVE('',#666,#623,#677,.T.);
#679=ORIENTED_EDGE('',*,*,#678,.T.);
#680=EDGE_LOOP('',(#630,#639,#647,#656,#664,#673,#679));
#681=FACE_BOUND('',#680,.T.);
#682=ADVANCED_FACE('',(#681),#619,.F.);
#683=CARTESIAN_POINT('',(28.75,15.704690062,-3.7));
#684=DIRECTION('',(-1.,-0.,0.));
#685=DIRECTION('',(0.,-1.,0.));
#686=AXIS2_PLACEMENT_3D('',#683,#684,#685);
#687=PLANE('',#686);
#688=CARTESIAN_POINT('',(28.75,32.587345031,-3.150026102));
#689=VERTEX_POINT('',#688);
#690=CARTESIAN_POINT('',(28.75,26.387345031,-3.150026102));
#691=VERTEX_POINT('',#690);
#692=CARTESIAN_POINT('',(28.75,32.587345031,-3.150026102));
#693=DIRECTION('',(0.,-1.,-0.));
#694=VECTOR('',#693,6.2);
#695=LINE('',#692,#694);
#696=EDGE_CURVE('',#689,#691,#695,.T.);
#697=ORIENTED_EDGE('',*,*,#696,.T.);
#698=CARTESIAN_POINT('',(28.75,25.887345031,-2.650026102));
#699=VERTEX_POINT('',#698);
#700=CARTESIAN_POINT('',(28.75,26.387345031,-2.650026102));
#701=DIRECTION('',(-1.,-0.,0.));
#702=DIRECTION('',(0.,-1.,0.));
#703=AXIS2_PLACEMENT_3D('',#700,#701,#702);
#704=CIRCLE('',#703,0.5);
#705=EDGE_CURVE('',#691,#699,#704,.T.);
#706=ORIENTED_EDGE('',*,*,#705,.T.);
#707=CARTESIAN_POINT('',(28.75,25.887345031,-1.650026102));
#708=VERTEX_POINT('',#707);
#709=CARTESIAN_POINT('',(28.75,25.887345031,-1.650026102));
#710=DIRECTION('',(0.,0.,-1.));
#711=VECTOR('',#710,1.);
#712=LINE('',#709,#711);
#713=EDGE_CURVE('',#708,#699,#712,.T.);
#714=ORIENTED_EDGE('',*,*,#713,.F.);
#715=CARTESIAN_POINT('',(28.75,26.387345031,-1.150026102));
#716=VERTEX_POINT('',#715);
#717=CARTESIAN_POINT('',(28.75,26.387345031,-1.650026102));
#718=DIRECTION('',(-1.,-0.,0.));
#719=DIRECTION('',(0.,-1.,0.));
#720=AXIS2_PLACEMENT_3D('',#717,#718,#719);
#721=CIRCLE('',#720,0.5);
#722=EDGE_CURVE('',#708,#716,#721,.T.);
#723=ORIENTED_EDGE('',*,*,#722,.T.);
#724=CARTESIAN_POINT('',(28.75,32.587345031,-1.150026102));
#725=VERTEX_POINT('',#724);
#726=CARTESIAN_POINT('',(28.75,32.587345031,-1.150026102));
#727=DIRECTION('',(0.,-1.,0.));
#728=VECTOR('',#727,6.2);
#729=LINE('',#726,#728);
#730=EDGE_CURVE('',#725,#716,#729,.T.);
#731=ORIENTED_EDGE('',*,*,#730,.F.);
#732=CARTESIAN_POINT('',(28.75,33.087345031,-1.650026102));
#733=VERTEX_POINT('',#732);
#734=CARTESIAN_POINT('',(28.75,32.587345031,-1.650026102));
#735=DIRECTION('',(-1.,-0.,0.));
#736=DIRECTION('',(0.,-1.,0.));
#737=AXIS2_PLACEMENT_3D('',#734,#735,#736);
#738=CIRCLE('',#737,0.5);
#739=EDGE_CURVE('',#725,#733,#738,.T.);
#740=ORIENTED_EDGE('',*,*,#739,.T.);
#741=CARTESIAN_POINT('',(28.75,33.087345031,-2.650026102));
#742=VERTEX_POINT('',#741);
#743=CARTESIAN_POINT('',(28.75,33.087345031,-2.650026102));
#744=DIRECTION('',(0.,0.,1.));
#745=VECTOR('',#744,1.);
#746=LINE('',#743,#745);
#747=EDGE_CURVE('',#742,#733,#746,.T.);
#748=ORIENTED_EDGE('',*,*,#747,.F.);
#749=CARTESIAN_POINT('',(28.75,32.587345031,-2.650026102));
#750=DIRECTION('',(-1.,-0.,0.));
#751=DIRECTION('',(0.,-1.,0.));
#752=AXIS2_PLACEMENT_3D('',#749,#750,#751);
#753=CIRCLE('',#752,0.5);
#754=EDGE_CURVE('',#742,#689,#753,.T.);
#755=ORIENTED_EDGE('',*,*,#754,.T.);
#756=EDGE_LOOP('',(#697,#706,#714,#723,#731,#740,#748,#755));
#757=FACE_BOUND('',#756,.T.);
#758=ADVANCED_FACE('',(#757),#687,.T.);
#759=CARTESIAN_POINT('',(29.25,15.704690062,-3.7));
#760=DIRECTION('',(-1.,-0.,0.));
#761=DIRECTION('',(0.,-1.,0.));
#762=AXIS2_PLACEMENT_3D('',#759,#760,#761);
#763=PLANE('',#762);
#764=CARTESIAN_POINT('',(29.25,25.887345031,-1.650026102));
#765=VERTEX_POINT('',#764);
#766=CARTESIAN_POINT('',(29.25,25.887345031,-2.650026102));
#767=VERTEX_POINT('',#766);
#768=CARTESIAN_POINT('',(29.25,25.887345031,-1.650026102));
#769=DIRECTION('',(0.,0.,-1.));
#770=VECTOR('',#769,1.);
#771=LINE('',#768,#770);
#772=EDGE_CURVE('',#765,#767,#771,.T.);
#773=ORIENTED_EDGE('',*,*,#772,.T.);
#774=CARTESIAN_POINT('',(29.25,26.387345031,-3.150026102));
#775=VERTEX_POINT('',#774);
#776=CARTESIAN_POINT('',(29.25,26.387345031,-2.650026102));
#777=DIRECTION('',(1.,0.,-0.));
#778=DIRECTION('',(0.,-1.,0.));
#779=AXIS2_PLACEMENT_3D('',#776,#777,#778);
#780=CIRCLE('',#779,0.5);
#781=EDGE_CURVE('',#767,#775,#780,.T.);
#782=ORIENTED_EDGE('',*,*,#781,.T.);
#783=CARTESIAN_POINT('',(29.25,27.687345031,-3.150026102));
#784=VERTEX_POINT('',#783);
#785=CARTESIAN_POINT('',(29.25,27.687345031,-3.150026102));
#786=DIRECTION('',(0.,-1.,-0.));
#787=VECTOR('',#786,1.3);
#788=LINE('',#785,#787);
#789=EDGE_CURVE('',#784,#775,#788,.T.);
#790=ORIENTED_EDGE('',*,*,#789,.F.);
#791=CARTESIAN_POINT('',(29.25,26.687345031,-2.150026102));
#792=VERTEX_POINT('',#791);
#793=CARTESIAN_POINT('',(29.25,27.687345031,-2.150026102));
#794=DIRECTION('',(1.,0.,-0.));
#795=DIRECTION('',(0.,-1.,0.));
#796=AXIS2_PLACEMENT_3D('',#793,#794,#795);
#797=CIRCLE('',#796,1.);
#798=EDGE_CURVE('',#792,#784,#797,.T.);
#799=ORIENTED_EDGE('',*,*,#798,.F.);
#800=CARTESIAN_POINT('',(29.25,27.687345031,-1.150026102));
#801=VERTEX_POINT('',#800);
#802=CARTESIAN_POINT('',(29.25,27.687345031,-2.150026102));
#803=DIRECTION('',(1.,0.,-0.));
#804=DIRECTION('',(0.,-1.,0.));
#805=AXIS2_PLACEMENT_3D('',#802,#803,#804);
#806=CIRCLE('',#805,1.);
#807=EDGE_CURVE('',#801,#792,#806,.T.);
#808=ORIENTED_EDGE('',*,*,#807,.F.);
#809=CARTESIAN_POINT('',(29.25,26.387345031,-1.150026102));
#810=VERTEX_POINT('',#809);
#811=CARTESIAN_POINT('',(29.25,27.687345031,-1.150026102));
#812=DIRECTION('',(0.,-1.,0.));
#813=VECTOR('',#812,1.3);
#814=LINE('',#811,#813);
#815=EDGE_CURVE('',#801,#810,#814,.T.);
#816=ORIENTED_EDGE('',*,*,#815,.T.);
#817=CARTESIAN_POINT('',(29.25,26.387345031,-1.650026102));
#818=DIRECTION('',(1.,0.,-0.));
#819=DIRECTION('',(0.,-1.,0.));
#820=AXIS2_PLACEMENT_3D('',#817,#818,#819);
#821=CIRCLE('',#820,0.5);
#822=EDGE_CURVE('',#810,#765,#821,.T.);
#823=ORIENTED_EDGE('',*,*,#822,.T.);
#824=EDGE_LOOP('',(#773,#782,#790,#799,#808,#816,#823));
#825=FACE_BOUND('',#824,.T.);
#826=ADVANCED_FACE('',(#825),#763,.F.);
#827=CARTESIAN_POINT('',(29.25,25.887345031,-3.050026102));
#828=DIRECTION('',(-0.,1.,0.));
#829=DIRECTION('',(-1.,-0.,0.));
#830=AXIS2_PLACEMENT_3D('',#827,#828,#829);
#831=PLANE('',#830);
#832=ORIENTED_EDGE('',*,*,#713,.T.);
#833=CARTESIAN_POINT('',(28.75,25.887345031,-2.650026102));
#834=DIRECTION('',(1.,0.,-0.));
#835=VECTOR('',#834,0.5);
#836=LINE('',#833,#835);
#837=EDGE_CURVE('',#699,#767,#836,.T.);
#838=ORIENTED_EDGE('',*,*,#837,.T.);
#839=ORIENTED_EDGE('',*,*,#772,.F.);
#840=CARTESIAN_POINT('',(29.25,25.887345031,-1.650026102));
#841=DIRECTION('',(-1.,-0.,0.));
#842=VECTOR('',#841,0.5);
#843=LINE('',#840,#842);
#844=EDGE_CURVE('',#765,#708,#843,.T.);
#845=ORIENTED_EDGE('',*,*,#844,.T.);
#846=EDGE_LOOP('',(#832,#838,#839,#845));
#847=FACE_BOUND('',#846,.T.);
#848=ADVANCED_FACE('',(#847),#831,.F.);
#849=CARTESIAN_POINT('',(29.25,29.487345031,-1.150026102));
#850=DIRECTION('',(0.,-0.,-1.));
#851=DIRECTION('',(-0.,-1.,0.));
#852=AXIS2_PLACEMENT_3D('',#849,#850,#851);
#853=PLANE('',#852);
#854=ORIENTED_EDGE('',*,*,#678,.F.);
#855=CARTESIAN_POINT('',(29.25,32.587345031,-1.150026102));
#856=DIRECTION('',(-1.,-0.,0.));
#857=VECTOR('',#856,0.5);
#858=LINE('',#855,#857);
#859=EDGE_CURVE('',#666,#725,#858,.T.);
#860=ORIENTED_EDGE('',*,*,#859,.T.);
#861=ORIENTED_EDGE('',*,*,#730,.T.);
#862=CARTESIAN_POINT('',(28.75,26.387345031,-1.150026102));
#863=DIRECTION('',(1.,0.,-0.));
#864=VECTOR('',#863,0.5);
#865=LINE('',#862,#864);
#866=EDGE_CURVE('',#716,#810,#865,.T.);
#867=ORIENTED_EDGE('',*,*,#866,.T.);
#868=ORIENTED_EDGE('',*,*,#815,.F.);
#869=CARTESIAN_POINT('',(34.65,27.687345031,-1.150026102));
#870=VERTEX_POINT('',#869);
#871=CARTESIAN_POINT('',(34.65,27.687345031,-1.150026102));
#872=DIRECTION('',(-1.,-0.,-0.));
#873=VECTOR('',#872,5.4);
#874=LINE('',#871,#873);
#875=EDGE_CURVE('',#870,#801,#874,.T.);
#876=ORIENTED_EDGE('',*,*,#875,.F.);
#877=CARTESIAN_POINT('',(34.65,31.287345031,-1.150026102));
#878=VERTEX_POINT('',#877);
#879=CARTESIAN_POINT('',(34.65,31.287345031,-1.150026102));
#880=DIRECTION('',(0.,-1.,0.));
#881=VECTOR('',#880,3.6);
#882=LINE('',#879,#881);
#883=EDGE_CURVE('',#878,#870,#882,.T.);
#884=ORIENTED_EDGE('',*,*,#883,.F.);
#885=CARTESIAN_POINT('',(34.65,31.287345031,-1.150026102));
#886=DIRECTION('',(-1.,-0.,0.));
#887=VECTOR('',#886,5.4);
#888=LINE('',#885,#887);
#889=EDGE_CURVE('',#878,#623,#888,.T.);
#890=ORIENTED_EDGE('',*,*,#889,.T.);
#891=EDGE_LOOP('',(#854,#860,#861,#867,#868,#876,#884,#890));
#892=FACE_BOUND('',#891,.T.);
#893=ADVANCED_FACE('',(#892),#853,.F.);
#894=CARTESIAN_POINT('',(29.25,33.087345031,-2.050026102));
#895=DIRECTION('',(0.,-1.,0.));
#896=DIRECTION('',(1.,0.,0.));
#897=AXIS2_PLACEMENT_3D('',#894,#895,#896);
#898=PLANE('',#897);
#899=ORIENTED_EDGE('',*,*,#747,.T.);
#900=CARTESIAN_POINT('',(28.75,33.087345031,-1.650026102));
#901=DIRECTION('',(1.,0.,-0.));
#902=VECTOR('',#901,0.5);
#903=LINE('',#900,#902);
#904=EDGE_CURVE('',#733,#658,#903,.T.);
#905=ORIENTED_EDGE('',*,*,#904,.T.);
#906=ORIENTED_EDGE('',*,*,#663,.F.);
#907=CARTESIAN_POINT('',(29.25,33.087345031,-2.650026102));
#908=DIRECTION('',(-1.,-0.,0.));
#909=VECTOR('',#908,0.5);
#910=LINE('',#907,#909);
#911=EDGE_CURVE('',#649,#742,#910,.T.);
#912=ORIENTED_EDGE('',*,*,#911,.T.);
#913=EDGE_LOOP('',(#899,#905,#906,#912));
#914=FACE_BOUND('',#913,.T.);
#915=ADVANCED_FACE('',(#914),#898,.F.);
#916=CARTESIAN_POINT('',(29.25,29.487345031,-3.150026102));
#917=DIRECTION('',(-0.,0.,-1.));
#918=DIRECTION('',(-0.,-1.,-0.));
#919=AXIS2_PLACEMENT_3D('',#916,#917,#918);
#920=PLANE('',#919);
#921=ORIENTED_EDGE('',*,*,#789,.T.);
#922=CARTESIAN_POINT('',(29.25,26.387345031,-3.150026102));
#923=DIRECTION('',(-1.,-0.,0.));
#924=VECTOR('',#923,0.5);
#925=LINE('',#922,#924);
#926=EDGE_CURVE('',#775,#691,#925,.T.);
#927=ORIENTED_EDGE('',*,*,#926,.T.);
#928=ORIENTED_EDGE('',*,*,#696,.F.);
#929=CARTESIAN_POINT('',(28.75,32.587345031,-3.150026102));
#930=DIRECTION('',(1.,0.,-0.));
#931=VECTOR('',#930,0.5);
#932=LINE('',#929,#931);
#933=EDGE_CURVE('',#689,#641,#932,.T.);
#934=ORIENTED_EDGE('',*,*,#933,.T.);
#935=ORIENTED_EDGE('',*,*,#646,.T.);
#936=CARTESIAN_POINT('',(34.65,31.287345031,-3.150026102));
#937=VERTEX_POINT('',#936);
#938=CARTESIAN_POINT('',(34.65,31.287345031,-3.150026102));
#939=DIRECTION('',(-1.,-0.,-0.));
#940=VECTOR('',#939,5.4);
#941=LINE('',#938,#940);
#942=EDGE_CURVE('',#937,#632,#941,.T.);
#943=ORIENTED_EDGE('',*,*,#942,.F.);
#944=CARTESIAN_POINT('',(34.65,27.687345031,-3.150026102));
#945=VERTEX_POINT('',#944);
#946=CARTESIAN_POINT('',(34.65,27.687345031,-3.150026102));
#947=DIRECTION('',(-0.,1.,0.));
#948=VECTOR('',#947,3.6);
#949=LINE('',#946,#948);
#950=EDGE_CURVE('',#945,#937,#949,.T.);
#951=ORIENTED_EDGE('',*,*,#950,.F.);
#952=CARTESIAN_POINT('',(34.65,27.687345031,-3.150026102));
#953=DIRECTION('',(-1.,-0.,0.));
#954=VECTOR('',#953,5.4);
#955=LINE('',#952,#954);
#956=EDGE_CURVE('',#945,#784,#955,.T.);
#957=ORIENTED_EDGE('',*,*,#956,.T.);
#958=EDGE_LOOP('',(#921,#927,#928,#934,#935,#943,#951,#957));
#959=FACE_BOUND('',#958,.T.);
#960=ADVANCED_FACE('',(#959),#920,.T.);
#961=CARTESIAN_POINT('',(29.25,26.387345031,-2.650026102));
#962=DIRECTION('',(1.,0.,0.));
#963=DIRECTION('',(-0.,1.,0.));
#964=AXIS2_PLACEMENT_3D('',#961,#962,#963);
#965=CYLINDRICAL_SURFACE('',#964,0.5);
#966=ORIENTED_EDGE('',*,*,#781,.F.);
#967=ORIENTED_EDGE('',*,*,#837,.F.);
#968=ORIENTED_EDGE('',*,*,#705,.F.);
#969=ORIENTED_EDGE('',*,*,#926,.F.);
#970=EDGE_LOOP('',(#966,#967,#968,#969));
#971=FACE_BOUND('',#970,.T.);
#972=ADVANCED_FACE('',(#971),#965,.T.);
#973=CARTESIAN_POINT('',(29.25,32.587345031,-1.650026102));
#974=DIRECTION('',(-1.,-0.,0.));
#975=DIRECTION('',(0.,-1.,0.));
#976=AXIS2_PLACEMENT_3D('',#973,#974,#975);
#977=CYLINDRICAL_SURFACE('',#976,0.5);
#978=ORIENTED_EDGE('',*,*,#672,.F.);
#979=ORIENTED_EDGE('',*,*,#904,.F.);
#980=ORIENTED_EDGE('',*,*,#739,.F.);
#981=ORIENTED_EDGE('',*,*,#859,.F.);
#982=EDGE_LOOP('',(#978,#979,#980,#981));
#983=FACE_BOUND('',#982,.T.);
#984=ADVANCED_FACE('',(#983),#977,.T.);
#985=CARTESIAN_POINT('',(29.25,26.387345031,-1.650026102));
#986=DIRECTION('',(-1.,-0.,0.));
#987=DIRECTION('',(0.,-1.,0.));
#988=AXIS2_PLACEMENT_3D('',#985,#986,#987);
#989=CYLINDRICAL_SURFACE('',#988,0.5);
#990=ORIENTED_EDGE('',*,*,#822,.F.);
#991=ORIENTED_EDGE('',*,*,#866,.F.);
#992=ORIENTED_EDGE('',*,*,#722,.F.);
#993=ORIENTED_EDGE('',*,*,#844,.F.);
#994=EDGE_LOOP('',(#990,#991,#992,#993));
#995=FACE_BOUND('',#994,.T.);
#996=ADVANCED_FACE('',(#995),#989,.T.);
#997=CARTESIAN_POINT('',(29.25,32.587345031,-2.650026102));
#998=DIRECTION('',(1.,0.,0.));
#999=DIRECTION('',(-0.,1.,0.));
#1000=AXIS2_PLACEMENT_3D('',#997,#998,#999);
#1001=CYLINDRICAL_SURFACE('',#1000,0.5);
#1002=ORIENTED_EDGE('',*,*,#655,.F.);
#1003=ORIENTED_EDGE('',*,*,#933,.F.);
#1004=ORIENTED_EDGE('',*,*,#754,.F.);
#1005=ORIENTED_EDGE('',*,*,#911,.F.);
#1006=EDGE_LOOP('',(#1002,#1003,#1004,#1005));
#1007=FACE_BOUND('',#1006,.T.);
#1008=ADVANCED_FACE('',(#1007),#1001,.T.);
#1009=CARTESIAN_POINT('',(29.25,31.287345031,-2.150026102));
#1010=DIRECTION('',(1.,0.,0.));
#1011=DIRECTION('',(-0.,1.,0.));
#1012=AXIS2_PLACEMENT_3D('',#1009,#1010,#1011);
#1013=CYLINDRICAL_SURFACE('',#1012,1.);
#1014=CARTESIAN_POINT('',(34.65,32.287345031,-2.150026102));
#1015=VERTEX_POINT('',#1014);
#1016=CARTESIAN_POINT('',(34.65,32.287345031,-2.150026102));
#1017=DIRECTION('',(-1.,-0.,-0.));
#1018=VECTOR('',#1017,5.4);
#1019=LINE('',#1016,#1018);
#1020=EDGE_CURVE('',#1015,#621,#1019,.T.);
#1021=ORIENTED_EDGE('',*,*,#1020,.T.);
#1022=ORIENTED_EDGE('',*,*,#629,.T.);
#1023=ORIENTED_EDGE('',*,*,#889,.F.);
#1024=CARTESIAN_POINT('',(34.65,31.287345031,-2.150026102));
#1025=DIRECTION('',(1.,0.,0.));
#1026=DIRECTION('',(-0.,1.,0.));
#1027=AXIS2_PLACEMENT_3D('',#1024,#1025,#1026);
#1028=CIRCLE('',#1027,1.);
#1029=EDGE_CURVE('',#1015,#878,#1028,.T.);
#1030=ORIENTED_EDGE('',*,*,#1029,.F.);
#1031=EDGE_LOOP('',(#1021,#1022,#1023,#1030));
#1032=FACE_BOUND('',#1031,.T.);
#1033=ADVANCED_FACE('',(#1032),#1013,.T.);
#1034=CARTESIAN_POINT('',(30.45,27.687345031,-2.150026102));
#1035=DIRECTION('',(-1.,-0.,0.));
#1036=DIRECTION('',(0.,-1.,0.));
#1037=AXIS2_PLACEMENT_3D('',#1034,#1035,#1036);
#1038=CYLINDRICAL_SURFACE('',#1037,1.);
#1039=CARTESIAN_POINT('',(34.65,26.687345031,-2.150026102));
#1040=VERTEX_POINT('',#1039);
#1041=CARTESIAN_POINT('',(29.25,26.687345031,-2.150026102));
#1042=DIRECTION('',(1.,0.,-0.));
#1043=VECTOR('',#1042,5.4);
#1044=LINE('',#1041,#1043);
#1045=EDGE_CURVE('',#792,#1040,#1044,.T.);
#1046=ORIENTED_EDGE('',*,*,#1045,.T.);
#1047=CARTESIAN_POINT('',(34.65,27.687345031,-2.150026102));
#1048=DIRECTION('',(1.,0.,0.));
#1049=DIRECTION('',(-0.,1.,0.));
#1050=AXIS2_PLACEMENT_3D('',#1047,#1048,#1049);
#1051=CIRCLE('',#1050,1.);
#1052=EDGE_CURVE('',#870,#1040,#1051,.T.);
#1053=ORIENTED_EDGE('',*,*,#1052,.F.);
#1054=ORIENTED_EDGE('',*,*,#875,.T.);
#1055=ORIENTED_EDGE('',*,*,#807,.T.);
#1056=EDGE_LOOP('',(#1046,#1053,#1054,#1055));
#1057=FACE_BOUND('',#1056,.T.);
#1058=ADVANCED_FACE('',(#1057),#1038,.T.);
#1059=CARTESIAN_POINT('',(34.65,15.704690062,-3.7));
#1060=DIRECTION('',(1.,0.,0.));
#1061=DIRECTION('',(-0.,1.,0.));
#1062=AXIS2_PLACEMENT_3D('',#1059,#1060,#1061);
#1063=PLANE('',#1062);
#1064=ORIENTED_EDGE('',*,*,#950,.T.);
#1065=CARTESIAN_POINT('',(34.65,31.287345031,-2.150026102));
#1066=DIRECTION('',(1.,0.,0.));
#1067=DIRECTION('',(-0.,1.,0.));
#1068=AXIS2_PLACEMENT_3D('',#1065,#1066,#1067);
#1069=CIRCLE('',#1068,1.);
#1070=EDGE_CURVE('',#937,#1015,#1069,.T.);
#1071=ORIENTED_EDGE('',*,*,#1070,.T.);
#1072=ORIENTED_EDGE('',*,*,#1029,.T.);
#1073=ORIENTED_EDGE('',*,*,#883,.T.);
#1074=ORIENTED_EDGE('',*,*,#1052,.T.);
#1075=CARTESIAN_POINT('',(34.65,27.687345031,-2.150026102));
#1076=DIRECTION('',(1.,0.,0.));
#1077=DIRECTION('',(-0.,1.,0.));
#1078=AXIS2_PLACEMENT_3D('',#1075,#1076,#1077);
#1079=CIRCLE('',#1078,1.);
#1080=EDGE_CURVE('',#1040,#945,#1079,.T.);
#1081=ORIENTED_EDGE('',*,*,#1080,.T.);
#1082=EDGE_LOOP('',(#1064,#1071,#1072,#1073,#1074,#1081));
#1083=FACE_BOUND('',#1082,.T.);
#1084=ADVANCED_FACE('',(#1083),#1063,.T.);
#1085=CARTESIAN_POINT('',(29.25,31.287345031,-2.150026102));
#1086=DIRECTION('',(1.,0.,0.));
#1087=DIRECTION('',(-0.,1.,0.));
#1088=AXIS2_PLACEMENT_3D('',#1085,#1086,#1087);
#1089=CYLINDRICAL_SURFACE('',#1088,1.);
#1090=ORIENTED_EDGE('',*,*,#1020,.F.);
#1091=ORIENTED_EDGE('',*,*,#1070,.F.);
#1092=ORIENTED_EDGE('',*,*,#942,.T.);
#1093=ORIENTED_EDGE('',*,*,#638,.T.);
#1094=EDGE_LOOP('',(#1090,#1091,#1092,#1093));
#1095=FACE_BOUND('',#1094,.T.);
#1096=ADVANCED_FACE('',(#1095),#1089,.T.);
#1097=CARTESIAN_POINT('',(30.45,27.687345031,-2.150026102));
#1098=DIRECTION('',(-1.,-0.,0.));
#1099=DIRECTION('',(0.,-1.,0.));
#1100=AXIS2_PLACEMENT_3D('',#1097,#1098,#1099);
#1101=CYLINDRICAL_SURFACE('',#1100,1.);
#1102=ORIENTED_EDGE('',*,*,#1045,.F.);
#1103=ORIENTED_EDGE('',*,*,#798,.T.);
#1104=ORIENTED_EDGE('',*,*,#956,.F.);
#1105=ORIENTED_EDGE('',*,*,#1080,.F.);
#1106=EDGE_LOOP('',(#1102,#1103,#1104,#1105));
#1107=FACE_BOUND('',#1106,.T.);
#1108=ADVANCED_FACE('',(#1107),#1101,.T.);
#1109=CLOSED_SHELL('',(#682,#758,#826,#848,#893,#915,#960,#972,#984,#996,#1008,#1033,#1058,#1084,#1096,#1108));
#1110=MANIFOLD_SOLID_BREP('down (1)',#1109);
#614=STYLED_ITEM('',(#613),#1110);
#1112=CARTESIAN_POINT('',(-29.25,43.27,-3.7));
#1113=DIRECTION('',(1.,0.,0.));
#1114=DIRECTION('',(-0.,1.,0.));
#1115=AXIS2_PLACEMENT_3D('',#1112,#1113,#1114);
#1116=PLANE('',#1115);
#1117=CARTESIAN_POINT('',(-29.25,26.687345031,-2.150026102));
#1118=VERTEX_POINT('',#1117);
#1119=CARTESIAN_POINT('',(-29.25,27.687345031,-1.150026102));
#1120=VERTEX_POINT('',#1119);
#1121=CARTESIAN_POINT('',(-29.25,27.687345031,-2.150026102));
#1122=DIRECTION('',(-1.,-0.,-0.));
#1123=DIRECTION('',(-0.,1.,0.));
#1124=AXIS2_PLACEMENT_3D('',#1121,#1122,#1123);
#1125=CIRCLE('',#1124,1.);
#1126=EDGE_CURVE('',#1118,#1120,#1125,.T.);
#1127=ORIENTED_EDGE('',*,*,#1126,.F.);
#1128=CARTESIAN_POINT('',(-29.25,27.687345031,-3.150026102));
#1129=VERTEX_POINT('',#1128);
#1130=CARTESIAN_POINT('',(-29.25,27.687345031,-2.150026102));
#1131=DIRECTION('',(-1.,-0.,-0.));
#1132=DIRECTION('',(-0.,1.,0.));
#1133=AXIS2_PLACEMENT_3D('',#1130,#1131,#1132);
#1134=CIRCLE('',#1133,1.);
#1135=EDGE_CURVE('',#1129,#1118,#1134,.T.);
#1136=ORIENTED_EDGE('',*,*,#1135,.F.);
#1137=CARTESIAN_POINT('',(-29.25,26.387345031,-3.150026102));
#1138=VERTEX_POINT('',#1137);
#1139=CARTESIAN_POINT('',(-29.25,26.387345031,-3.150026102));
#1140=DIRECTION('',(-0.,1.,-0.));
#1141=VECTOR('',#1140,1.3);
#1142=LINE('',#1139,#1141);
#1143=EDGE_CURVE('',#1138,#1129,#1142,.T.);
#1144=ORIENTED_EDGE('',*,*,#1143,.F.);
#1145=CARTESIAN_POINT('',(-29.25,25.887345031,-2.650026102));
#1146=VERTEX_POINT('',#1145);
#1147=CARTESIAN_POINT('',(-29.25,26.387345031,-2.650026102));
#1148=DIRECTION('',(-1.,-0.,-0.));
#1149=DIRECTION('',(-0.,1.,0.));
#1150=AXIS2_PLACEMENT_3D('',#1147,#1148,#1149);
#1151=CIRCLE('',#1150,0.5);
#1152=EDGE_CURVE('',#1138,#1146,#1151,.T.);
#1153=ORIENTED_EDGE('',*,*,#1152,.T.);
#1154=CARTESIAN_POINT('',(-29.25,25.887345031,-1.650026102));
#1155=VERTEX_POINT('',#1154);
#1156=CARTESIAN_POINT('',(-29.25,25.887345031,-2.650026102));
#1157=DIRECTION('',(0.,0.,1.));
#1158=VECTOR('',#1157,1.);
#1159=LINE('',#1156,#1158);
#1160=EDGE_CURVE('',#1146,#1155,#1159,.T.);
#1161=ORIENTED_EDGE('',*,*,#1160,.T.);
#1162=CARTESIAN_POINT('',(-29.25,26.387345031,-1.150026102));
#1163=VERTEX_POINT('',#1162);
#1164=CARTESIAN_POINT('',(-29.25,26.387345031,-1.650026102));
#1165=DIRECTION('',(-1.,-0.,-0.));
#1166=DIRECTION('',(-0.,1.,0.));
#1167=AXIS2_PLACEMENT_3D('',#1164,#1165,#1166);
#1168=CIRCLE('',#1167,0.5);
#1169=EDGE_CURVE('',#1155,#1163,#1168,.T.);
#1170=ORIENTED_EDGE('',*,*,#1169,.T.);
#1171=CARTESIAN_POINT('',(-29.25,26.387345031,-1.150026102));
#1172=DIRECTION('',(-0.,1.,0.));
#1173=VECTOR('',#1172,1.3);
#1174=LINE('',#1171,#1173);
#1175=EDGE_CURVE('',#1163,#1120,#1174,.T.);
#1176=ORIENTED_EDGE('',*,*,#1175,.T.);
#1177=EDGE_LOOP('',(#1127,#1136,#1144,#1153,#1161,#1170,#1176));
#1178=FACE_BOUND('',#1177,.T.);
#1179=ADVANCED_FACE('',(#1178),#1116,.F.);
#1180=CARTESIAN_POINT('',(-28.75,43.27,-3.7));
#1181=DIRECTION('',(1.,0.,0.));
#1182=DIRECTION('',(-0.,1.,0.));
#1183=AXIS2_PLACEMENT_3D('',#1180,#1181,#1182);
#1184=PLANE('',#1183);
#1185=CARTESIAN_POINT('',(-28.75,26.387345031,-3.150026102));
#1186=VERTEX_POINT('',#1185);
#1187=CARTESIAN_POINT('',(-28.75,32.587345031,-3.150026102));
#1188=VERTEX_POINT('',#1187);
#1189=CARTESIAN_POINT('',(-28.75,26.387345031,-3.150026102));
#1190=DIRECTION('',(-0.,1.,-0.));
#1191=VECTOR('',#1190,6.2);
#1192=LINE('',#1189,#1191);
#1193=EDGE_CURVE('',#1186,#1188,#1192,.T.);
#1194=ORIENTED_EDGE('',*,*,#1193,.T.);
#1195=CARTESIAN_POINT('',(-28.75,33.087345031,-2.650026102));
#1196=VERTEX_POINT('',#1195);
#1197=CARTESIAN_POINT('',(-28.75,32.587345031,-2.650026102));
#1198=DIRECTION('',(1.,0.,0.));
#1199=DIRECTION('',(-0.,1.,0.));
#1200=AXIS2_PLACEMENT_3D('',#1197,#1198,#1199);
#1201=CIRCLE('',#1200,0.5);
#1202=EDGE_CURVE('',#1188,#1196,#1201,.T.);
#1203=ORIENTED_EDGE('',*,*,#1202,.T.);
#1204=CARTESIAN_POINT('',(-28.75,33.087345031,-1.650026102));
#1205=VERTEX_POINT('',#1204);
#1206=CARTESIAN_POINT('',(-28.75,33.087345031,-1.650026102));
#1207=DIRECTION('',(0.,0.,-1.));
#1208=VECTOR('',#1207,1.);
#1209=LINE('',#1206,#1208);
#1210=EDGE_CURVE('',#1205,#1196,#1209,.T.);
#1211=ORIENTED_EDGE('',*,*,#1210,.F.);
#1212=CARTESIAN_POINT('',(-28.75,32.587345031,-1.150026102));
#1213=VERTEX_POINT('',#1212);
#1214=CARTESIAN_POINT('',(-28.75,32.587345031,-1.650026102));
#1215=DIRECTION('',(1.,0.,0.));
#1216=DIRECTION('',(-0.,1.,0.));
#1217=AXIS2_PLACEMENT_3D('',#1214,#1215,#1216);
#1218=CIRCLE('',#1217,0.5);
#1219=EDGE_CURVE('',#1205,#1213,#1218,.T.);
#1220=ORIENTED_EDGE('',*,*,#1219,.T.);
#1221=CARTESIAN_POINT('',(-28.75,26.387345031,-1.150026102));
#1222=VERTEX_POINT('',#1221);
#1223=CARTESIAN_POINT('',(-28.75,26.387345031,-1.150026102));
#1224=DIRECTION('',(-0.,1.,0.));
#1225=VECTOR('',#1224,6.2);
#1226=LINE('',#1223,#1225);
#1227=EDGE_CURVE('',#1222,#1213,#1226,.T.);
#1228=ORIENTED_EDGE('',*,*,#1227,.F.);
#1229=CARTESIAN_POINT('',(-28.75,25.887345031,-1.650026102));
#1230=VERTEX_POINT('',#1229);
#1231=CARTESIAN_POINT('',(-28.75,26.387345031,-1.650026102));
#1232=DIRECTION('',(1.,0.,0.));
#1233=DIRECTION('',(-0.,1.,0.));
#1234=AXIS2_PLACEMENT_3D('',#1231,#1232,#1233);
#1235=CIRCLE('',#1234,0.5);
#1236=EDGE_CURVE('',#1222,#1230,#1235,.T.);
#1237=ORIENTED_EDGE('',*,*,#1236,.T.);
#1238=CARTESIAN_POINT('',(-28.75,25.887345031,-2.650026102));
#1239=VERTEX_POINT('',#1238);
#1240=CARTESIAN_POINT('',(-28.75,25.887345031,-2.650026102));
#1241=DIRECTION('',(0.,0.,1.));
#1242=VECTOR('',#1241,1.);
#1243=LINE('',#1240,#1242);
#1244=EDGE_CURVE('',#1239,#1230,#1243,.T.);
#1245=ORIENTED_EDGE('',*,*,#1244,.F.);
#1246=CARTESIAN_POINT('',(-28.75,26.387345031,-2.650026102));
#1247=DIRECTION('',(1.,0.,0.));
#1248=DIRECTION('',(-0.,1.,0.));
#1249=AXIS2_PLACEMENT_3D('',#1246,#1247,#1248);
#1250=CIRCLE('',#1249,0.5);
#1251=EDGE_CURVE('',#1239,#1186,#1250,.T.);
#1252=ORIENTED_EDGE('',*,*,#1251,.T.);
#1253=EDGE_LOOP('',(#1194,#1203,#1211,#1220,#1228,#1237,#1245,#1252));
#1254=FACE_BOUND('',#1253,.T.);
#1255=ADVANCED_FACE('',(#1254),#1184,.T.);
#1256=CARTESIAN_POINT('',(-29.25,43.27,-3.7));
#1257=DIRECTION('',(1.,0.,0.));
#1258=DIRECTION('',(-0.,1.,0.));
#1259=AXIS2_PLACEMENT_3D('',#1256,#1257,#1258);
#1260=PLANE('',#1259);
#1261=CARTESIAN_POINT('',(-29.25,33.087345031,-1.650026102));
#1262=VERTEX_POINT('',#1261);
#1263=CARTESIAN_POINT('',(-29.25,33.087345031,-2.650026102));
#1264=VERTEX_POINT('',#1263);
#1265=CARTESIAN_POINT('',(-29.25,33.087345031,-1.650026102));
#1266=DIRECTION('',(0.,0.,-1.));
#1267=VECTOR('',#1266,1.);
#1268=LINE('',#1265,#1267);
#1269=EDGE_CURVE('',#1262,#1264,#1268,.T.);
#1270=ORIENTED_EDGE('',*,*,#1269,.T.);
#1271=CARTESIAN_POINT('',(-29.25,32.587345031,-3.150026102));
#1272=VERTEX_POINT('',#1271);
#1273=CARTESIAN_POINT('',(-29.25,32.587345031,-2.650026102));
#1274=DIRECTION('',(-1.,-0.,-0.));
#1275=DIRECTION('',(-0.,1.,0.));
#1276=AXIS2_PLACEMENT_3D('',#1273,#1274,#1275);
#1277=CIRCLE('',#1276,0.5);
#1278=EDGE_CURVE('',#1264,#1272,#1277,.T.);
#1279=ORIENTED_EDGE('',*,*,#1278,.T.);
#1280=CARTESIAN_POINT('',(-29.25,31.287345031,-3.150026102));
#1281=VERTEX_POINT('',#1280);
#1282=CARTESIAN_POINT('',(-29.25,31.287345031,-3.150026102));
#1283=DIRECTION('',(-0.,1.,-0.));
#1284=VECTOR('',#1283,1.3);
#1285=LINE('',#1282,#1284);
#1286=EDGE_CURVE('',#1281,#1272,#1285,.T.);
#1287=ORIENTED_EDGE('',*,*,#1286,.F.);
#1288=CARTESIAN_POINT('',(-29.25,32.287345031,-2.150026102));
#1289=VERTEX_POINT('',#1288);
#1290=CARTESIAN_POINT('',(-29.25,31.287345031,-2.150026102));
#1291=DIRECTION('',(-1.,-0.,-0.));
#1292=DIRECTION('',(-0.,1.,0.));
#1293=AXIS2_PLACEMENT_3D('',#1290,#1291,#1292);
#1294=CIRCLE('',#1293,1.);
#1295=EDGE_CURVE('',#1289,#1281,#1294,.T.);
#1296=ORIENTED_EDGE('',*,*,#1295,.F.);
#1297=CARTESIAN_POINT('',(-29.25,31.287345031,-1.150026102));
#1298=VERTEX_POINT('',#1297);
#1299=CARTESIAN_POINT('',(-29.25,31.287345031,-2.150026102));
#1300=DIRECTION('',(-1.,-0.,-0.));
#1301=DIRECTION('',(-0.,1.,0.));
#1302=AXIS2_PLACEMENT_3D('',#1299,#1300,#1301);
#1303=CIRCLE('',#1302,1.);
#1304=EDGE_CURVE('',#1298,#1289,#1303,.T.);
#1305=ORIENTED_EDGE('',*,*,#1304,.F.);
#1306=CARTESIAN_POINT('',(-29.25,32.587345031,-1.150026102));
#1307=VERTEX_POINT('',#1306);
#1308=CARTESIAN_POINT('',(-29.25,31.287345031,-1.150026102));
#1309=DIRECTION('',(-0.,1.,0.));
#1310=VECTOR('',#1309,1.3);
#1311=LINE('',#1308,#1310);
#1312=EDGE_CURVE('',#1298,#1307,#1311,.T.);
#1313=ORIENTED_EDGE('',*,*,#1312,.T.);
#1314=CARTESIAN_POINT('',(-29.25,32.587345031,-1.650026102));
#1315=DIRECTION('',(-1.,-0.,-0.));
#1316=DIRECTION('',(-0.,1.,0.));
#1317=AXIS2_PLACEMENT_3D('',#1314,#1315,#1316);
#1318=CIRCLE('',#1317,0.5);
#1319=EDGE_CURVE('',#1307,#1262,#1318,.T.);
#1320=ORIENTED_EDGE('',*,*,#1319,.T.);
#1321=EDGE_LOOP('',(#1270,#1279,#1287,#1296,#1305,#1313,#1320));
#1322=FACE_BOUND('',#1321,.T.);
#1323=ADVANCED_FACE('',(#1322),#1260,.F.);
#1324=CARTESIAN_POINT('',(-29.25,33.087345031,-3.050026102));
#1325=DIRECTION('',(0.,-1.,0.));
#1326=DIRECTION('',(1.,0.,0.));
#1327=AXIS2_PLACEMENT_3D('',#1324,#1325,#1326);
#1328=PLANE('',#1327);
#1329=ORIENTED_EDGE('',*,*,#1210,.T.);
#1330=CARTESIAN_POINT('',(-28.75,33.087345031,-2.650026102));
#1331=DIRECTION('',(-1.,-0.,-0.));
#1332=VECTOR('',#1331,0.5);
#1333=LINE('',#1330,#1332);
#1334=EDGE_CURVE('',#1196,#1264,#1333,.T.);
#1335=ORIENTED_EDGE('',*,*,#1334,.T.);
#1336=ORIENTED_EDGE('',*,*,#1269,.F.);
#1337=CARTESIAN_POINT('',(-29.25,33.087345031,-1.650026102));
#1338=DIRECTION('',(1.,0.,0.));
#1339=VECTOR('',#1338,0.5);
#1340=LINE('',#1337,#1339);
#1341=EDGE_CURVE('',#1262,#1205,#1340,.T.);
#1342=ORIENTED_EDGE('',*,*,#1341,.T.);
#1343=EDGE_LOOP('',(#1329,#1335,#1336,#1342));
#1344=FACE_BOUND('',#1343,.T.);
#1345=ADVANCED_FACE('',(#1344),#1328,.F.);
#1346=CARTESIAN_POINT('',(-29.25,29.487345031,-1.150026102));
#1347=DIRECTION('',(-0.,0.,-1.));
#1348=DIRECTION('',(0.,1.,0.));
#1349=AXIS2_PLACEMENT_3D('',#1346,#1347,#1348);
#1350=PLANE('',#1349);
#1351=ORIENTED_EDGE('',*,*,#1175,.F.);
#1352=CARTESIAN_POINT('',(-29.25,26.387345031,-1.150026102));
#1353=DIRECTION('',(1.,0.,0.));
#1354=VECTOR('',#1353,0.5);
#1355=LINE('',#1352,#1354);
#1356=EDGE_CURVE('',#1163,#1222,#1355,.T.);
#1357=ORIENTED_EDGE('',*,*,#1356,.T.);
#1358=ORIENTED_EDGE('',*,*,#1227,.T.);
#1359=CARTESIAN_POINT('',(-28.75,32.587345031,-1.150026102));
#1360=DIRECTION('',(-1.,-0.,-0.));
#1361=VECTOR('',#1360,0.5);
#1362=LINE('',#1359,#1361);
#1363=EDGE_CURVE('',#1213,#1307,#1362,.T.);
#1364=ORIENTED_EDGE('',*,*,#1363,.T.);
#1365=ORIENTED_EDGE('',*,*,#1312,.F.);
#1366=CARTESIAN_POINT('',(-33.25,31.287345031,-1.150026102));
#1367=VERTEX_POINT('',#1366);
#1368=CARTESIAN_POINT('',(-33.25,31.287345031,-1.150026102));
#1369=DIRECTION('',(1.,0.,-0.));
#1370=VECTOR('',#1369,4.);
#1371=LINE('',#1368,#1370);
#1372=EDGE_CURVE('',#1367,#1298,#1371,.T.);
#1373=ORIENTED_EDGE('',*,*,#1372,.F.);
#1374=CARTESIAN_POINT('',(-33.25,27.687345031,-1.150026102));
#1375=VERTEX_POINT('',#1374);
#1376=CARTESIAN_POINT('',(-33.25,27.687345031,-1.150026102));
#1377=DIRECTION('',(-0.,1.,0.));
#1378=VECTOR('',#1377,3.6);
#1379=LINE('',#1376,#1378);
#1380=EDGE_CURVE('',#1375,#1367,#1379,.T.);
#1381=ORIENTED_EDGE('',*,*,#1380,.F.);
#1382=CARTESIAN_POINT('',(-33.25,27.687345031,-1.150026102));
#1383=DIRECTION('',(1.,0.,0.));
#1384=VECTOR('',#1383,4.);
#1385=LINE('',#1382,#1384);
#1386=EDGE_CURVE('',#1375,#1120,#1385,.T.);
#1387=ORIENTED_EDGE('',*,*,#1386,.T.);
#1388=EDGE_LOOP('',(#1351,#1357,#1358,#1364,#1365,#1373,#1381,#1387));
#1389=FACE_BOUND('',#1388,.T.);
#1390=ADVANCED_FACE('',(#1389),#1350,.F.);
#1391=CARTESIAN_POINT('',(-29.25,25.887345031,-2.050026102));
#1392=DIRECTION('',(-0.,1.,0.));
#1393=DIRECTION('',(-1.,-0.,0.));
#1394=AXIS2_PLACEMENT_3D('',#1391,#1392,#1393);
#1395=PLANE('',#1394);
#1396=ORIENTED_EDGE('',*,*,#1244,.T.);
#1397=CARTESIAN_POINT('',(-28.75,25.887345031,-1.650026102));
#1398=DIRECTION('',(-1.,-0.,-0.));
#1399=VECTOR('',#1398,0.5);
#1400=LINE('',#1397,#1399);
#1401=EDGE_CURVE('',#1230,#1155,#1400,.T.);
#1402=ORIENTED_EDGE('',*,*,#1401,.T.);
#1403=ORIENTED_EDGE('',*,*,#1160,.F.);
#1404=CARTESIAN_POINT('',(-29.25,25.887345031,-2.650026102));
#1405=DIRECTION('',(1.,0.,0.));
#1406=VECTOR('',#1405,0.5);
#1407=LINE('',#1404,#1406);
#1408=EDGE_CURVE('',#1146,#1239,#1407,.T.);
#1409=ORIENTED_EDGE('',*,*,#1408,.T.);
#1410=EDGE_LOOP('',(#1396,#1402,#1403,#1409));
#1411=FACE_BOUND('',#1410,.T.);
#1412=ADVANCED_FACE('',(#1411),#1395,.F.);
#1413=CARTESIAN_POINT('',(-29.25,29.487345031,-3.150026102));
#1414=DIRECTION('',(0.,-0.,-1.));
#1415=DIRECTION('',(0.,1.,-0.));
#1416=AXIS2_PLACEMENT_3D('',#1413,#1414,#1415);
#1417=PLANE('',#1416);
#1418=ORIENTED_EDGE('',*,*,#1286,.T.);
#1419=CARTESIAN_POINT('',(-29.25,32.587345031,-3.150026102));
#1420=DIRECTION('',(1.,0.,0.));
#1421=VECTOR('',#1420,0.5);
#1422=LINE('',#1419,#1421);
#1423=EDGE_CURVE('',#1272,#1188,#1422,.T.);
#1424=ORIENTED_EDGE('',*,*,#1423,.T.);
#1425=ORIENTED_EDGE('',*,*,#1193,.F.);
#1426=CARTESIAN_POINT('',(-28.75,26.387345031,-3.150026102));
#1427=DIRECTION('',(-1.,-0.,-0.));
#1428=VECTOR('',#1427,0.5);
#1429=LINE('',#1426,#1428);
#1430=EDGE_CURVE('',#1186,#1138,#1429,.T.);
#1431=ORIENTED_EDGE('',*,*,#1430,.T.);
#1432=ORIENTED_EDGE('',*,*,#1143,.T.);
#1433=CARTESIAN_POINT('',(-33.25,27.687345031,-3.150026102));
#1434=VERTEX_POINT('',#1433);
#1435=CARTESIAN_POINT('',(-33.25,27.687345031,-3.150026102));
#1436=DIRECTION('',(1.,0.,-0.));
#1437=VECTOR('',#1436,4.);
#1438=LINE('',#1435,#1437);
#1439=EDGE_CURVE('',#1434,#1129,#1438,.T.);
#1440=ORIENTED_EDGE('',*,*,#1439,.F.);
#1441=CARTESIAN_POINT('',(-33.25,31.287345031,-3.150026102));
#1442=VERTEX_POINT('',#1441);
#1443=CARTESIAN_POINT('',(-33.25,31.287345031,-3.150026102));
#1444=DIRECTION('',(0.,-1.,0.));
#1445=VECTOR('',#1444,3.6);
#1446=LINE('',#1443,#1445);
#1447=EDGE_CURVE('',#1442,#1434,#1446,.T.);
#1448=ORIENTED_EDGE('',*,*,#1447,.F.);
#1449=CARTESIAN_POINT('',(-33.25,31.287345031,-3.150026102));
#1450=DIRECTION('',(1.,0.,0.));
#1451=VECTOR('',#1450,4.);
#1452=LINE('',#1449,#1451);
#1453=EDGE_CURVE('',#1442,#1281,#1452,.T.);
#1454=ORIENTED_EDGE('',*,*,#1453,.T.);
#1455=EDGE_LOOP('',(#1418,#1424,#1425,#1431,#1432,#1440,#1448,#1454));
#1456=FACE_BOUND('',#1455,.T.);
#1457=ADVANCED_FACE('',(#1456),#1417,.T.);
#1458=CARTESIAN_POINT('',(-29.25,32.587345031,-2.650026102));
#1459=DIRECTION('',(-1.,-0.,0.));
#1460=DIRECTION('',(0.,-1.,0.));
#1461=AXIS2_PLACEMENT_3D('',#1458,#1459,#1460);
#1462=CYLINDRICAL_SURFACE('',#1461,0.5);
#1463=ORIENTED_EDGE('',*,*,#1278,.F.);
#1464=ORIENTED_EDGE('',*,*,#1334,.F.);
#1465=ORIENTED_EDGE('',*,*,#1202,.F.);
#1466=ORIENTED_EDGE('',*,*,#1423,.F.);
#1467=EDGE_LOOP('',(#1463,#1464,#1465,#1466));
#1468=FACE_BOUND('',#1467,.T.);
#1469=ADVANCED_FACE('',(#1468),#1462,.T.);
#1470=CARTESIAN_POINT('',(-29.25,26.387345031,-1.650026102));
#1471=DIRECTION('',(1.,0.,0.));
#1472=DIRECTION('',(-0.,1.,0.));
#1473=AXIS2_PLACEMENT_3D('',#1470,#1471,#1472);
#1474=CYLINDRICAL_SURFACE('',#1473,0.5);
#1475=ORIENTED_EDGE('',*,*,#1169,.F.);
#1476=ORIENTED_EDGE('',*,*,#1401,.F.);
#1477=ORIENTED_EDGE('',*,*,#1236,.F.);
#1478=ORIENTED_EDGE('',*,*,#1356,.F.);
#1479=EDGE_LOOP('',(#1475,#1476,#1477,#1478));
#1480=FACE_BOUND('',#1479,.T.);
#1481=ADVANCED_FACE('',(#1480),#1474,.T.);
#1482=CARTESIAN_POINT('',(-29.25,32.587345031,-1.650026102));
#1483=DIRECTION('',(1.,0.,0.));
#1484=DIRECTION('',(-0.,1.,0.));
#1485=AXIS2_PLACEMENT_3D('',#1482,#1483,#1484);
#1486=CYLINDRICAL_SURFACE('',#1485,0.5);
#1487=ORIENTED_EDGE('',*,*,#1319,.F.);
#1488=ORIENTED_EDGE('',*,*,#1363,.F.);
#1489=ORIENTED_EDGE('',*,*,#1219,.F.);
#1490=ORIENTED_EDGE('',*,*,#1341,.F.);
#1491=EDGE_LOOP('',(#1487,#1488,#1489,#1490));
#1492=FACE_BOUND('',#1491,.T.);
#1493=ADVANCED_FACE('',(#1492),#1486,.T.);
#1494=CARTESIAN_POINT('',(-29.25,26.387345031,-2.650026102));
#1495=DIRECTION('',(-1.,-0.,0.));
#1496=DIRECTION('',(0.,-1.,0.));
#1497=AXIS2_PLACEMENT_3D('',#1494,#1495,#1496);
#1498=CYLINDRICAL_SURFACE('',#1497,0.5);
#1499=ORIENTED_EDGE('',*,*,#1152,.F.);
#1500=ORIENTED_EDGE('',*,*,#1430,.F.);
#1501=ORIENTED_EDGE('',*,*,#1251,.F.);
#1502=ORIENTED_EDGE('',*,*,#1408,.F.);
#1503=EDGE_LOOP('',(#1499,#1500,#1501,#1502));
#1504=FACE_BOUND('',#1503,.T.);
#1505=ADVANCED_FACE('',(#1504),#1498,.T.);
#1506=CARTESIAN_POINT('',(-29.25,27.687345031,-2.150026102));
#1507=DIRECTION('',(-1.,-0.,0.));
#1508=DIRECTION('',(0.,-1.,0.));
#1509=AXIS2_PLACEMENT_3D('',#1506,#1507,#1508);
#1510=CYLINDRICAL_SURFACE('',#1509,1.);
#1511=CARTESIAN_POINT('',(-33.25,26.687345031,-2.150026102));
#1512=VERTEX_POINT('',#1511);
#1513=CARTESIAN_POINT('',(-33.25,26.687345031,-2.150026102));
#1514=DIRECTION('',(1.,0.,-0.));
#1515=VECTOR('',#1514,4.);
#1516=LINE('',#1513,#1515);
#1517=EDGE_CURVE('',#1512,#1118,#1516,.T.);
#1518=ORIENTED_EDGE('',*,*,#1517,.T.);
#1519=ORIENTED_EDGE('',*,*,#1126,.T.);
#1520=ORIENTED_EDGE('',*,*,#1386,.F.);
#1521=CARTESIAN_POINT('',(-33.25,27.687345031,-2.150026102));
#1522=DIRECTION('',(-1.,-0.,0.));
#1523=DIRECTION('',(0.,-1.,0.));
#1524=AXIS2_PLACEMENT_3D('',#1521,#1522,#1523);
#1525=CIRCLE('',#1524,1.);
#1526=EDGE_CURVE('',#1512,#1375,#1525,.T.);
#1527=ORIENTED_EDGE('',*,*,#1526,.F.);
#1528=EDGE_LOOP('',(#1518,#1519,#1520,#1527));
#1529=FACE_BOUND('',#1528,.T.);
#1530=ADVANCED_FACE('',(#1529),#1510,.T.);
#1531=CARTESIAN_POINT('',(-30.45,31.287345031,-2.150026102));
#1532=DIRECTION('',(1.,0.,0.));
#1533=DIRECTION('',(-0.,1.,0.));
#1534=AXIS2_PLACEMENT_3D('',#1531,#1532,#1533);
#1535=CYLINDRICAL_SURFACE('',#1534,1.);
#1536=CARTESIAN_POINT('',(-33.25,32.287345031,-2.150026102));
#1537=VERTEX_POINT('',#1536);
#1538=CARTESIAN_POINT('',(-29.25,32.287345031,-2.150026102));
#1539=DIRECTION('',(-1.,-0.,-0.));
#1540=VECTOR('',#1539,4.);
#1541=LINE('',#1538,#1540);
#1542=EDGE_CURVE('',#1289,#1537,#1541,.T.);
#1543=ORIENTED_EDGE('',*,*,#1542,.T.);
#1544=CARTESIAN_POINT('',(-33.25,31.287345031,-2.150026102));
#1545=DIRECTION('',(-1.,-0.,0.));
#1546=DIRECTION('',(0.,-1.,0.));
#1547=AXIS2_PLACEMENT_3D('',#1544,#1545,#1546);
#1548=CIRCLE('',#1547,1.);
#1549=EDGE_CURVE('',#1367,#1537,#1548,.T.);
#1550=ORIENTED_EDGE('',*,*,#1549,.F.);
#1551=ORIENTED_EDGE('',*,*,#1372,.T.);
#1552=ORIENTED_EDGE('',*,*,#1304,.T.);
#1553=EDGE_LOOP('',(#1543,#1550,#1551,#1552));
#1554=FACE_BOUND('',#1553,.T.);
#1555=ADVANCED_FACE('',(#1554),#1535,.T.);
#1556=CARTESIAN_POINT('',(-33.25,43.27,-3.7));
#1557=DIRECTION('',(-1.,-0.,0.));
#1558=DIRECTION('',(0.,-1.,0.));
#1559=AXIS2_PLACEMENT_3D('',#1556,#1557,#1558);
#1560=PLANE('',#1559);
#1561=ORIENTED_EDGE('',*,*,#1447,.T.);
#1562=CARTESIAN_POINT('',(-33.25,27.687345031,-2.150026102));
#1563=DIRECTION('',(-1.,-0.,0.));
#1564=DIRECTION('',(0.,-1.,0.));
#1565=AXIS2_PLACEMENT_3D('',#1562,#1563,#1564);
#1566=CIRCLE('',#1565,1.);
#1567=EDGE_CURVE('',#1434,#1512,#1566,.T.);
#1568=ORIENTED_EDGE('',*,*,#1567,.T.);
#1569=ORIENTED_EDGE('',*,*,#1526,.T.);
#1570=ORIENTED_EDGE('',*,*,#1380,.T.);
#1571=ORIENTED_EDGE('',*,*,#1549,.T.);
#1572=CARTESIAN_POINT('',(-33.25,31.287345031,-2.150026102));
#1573=DIRECTION('',(-1.,-0.,0.));
#1574=DIRECTION('',(0.,-1.,0.));
#1575=AXIS2_PLACEMENT_3D('',#1572,#1573,#1574);
#1576=CIRCLE('',#1575,1.);
#1577=EDGE_CURVE('',#1537,#1442,#1576,.T.);
#1578=ORIENTED_EDGE('',*,*,#1577,.T.);
#1579=EDGE_LOOP('',(#1561,#1568,#1569,#1570,#1571,#1578));
#1580=FACE_BOUND('',#1579,.T.);
#1581=ADVANCED_FACE('',(#1580),#1560,.T.);
#1582=CARTESIAN_POINT('',(-29.25,27.687345031,-2.150026102));
#1583=DIRECTION('',(-1.,-0.,0.));
#1584=DIRECTION('',(0.,-1.,0.));
#1585=AXIS2_PLACEMENT_3D('',#1582,#1583,#1584);
#1586=CYLINDRICAL_SURFACE('',#1585,1.);
#1587=ORIENTED_EDGE('',*,*,#1517,.F.);
#1588=ORIENTED_EDGE('',*,*,#1567,.F.);
#1589=ORIENTED_EDGE('',*,*,#1439,.T.);
#1590=ORIENTED_EDGE('',*,*,#1135,.T.);
#1591=EDGE_LOOP('',(#1587,#1588,#1589,#1590));
#1592=FACE_BOUND('',#1591,.T.);
#1593=ADVANCED_FACE('',(#1592),#1586,.T.);
#1594=CARTESIAN_POINT('',(-30.45,31.287345031,-2.150026102));
#1595=DIRECTION('',(1.,0.,0.));
#1596=DIRECTION('',(-0.,1.,0.));
#1597=AXIS2_PLACEMENT_3D('',#1594,#1595,#1596);
#1598=CYLINDRICAL_SURFACE('',#1597,1.);
#1599=ORIENTED_EDGE('',*,*,#1542,.F.);
#1600=ORIENTED_EDGE('',*,*,#1295,.T.);
#1601=ORIENTED_EDGE('',*,*,#1453,.F.);
#1602=ORIENTED_EDGE('',*,*,#1577,.F.);
#1603=EDGE_LOOP('',(#1599,#1600,#1601,#1602));
#1604=FACE_BOUND('',#1603,.T.);
#1605=ADVANCED_FACE('',(#1604),#1598,.T.);
#1606=CLOSED_SHELL('',(#1179,#1255,#1323,#1345,#1390,#1412,#1457,#1469,#1481,#1493,#1505,#1530,#1555,#1581,#1593,#1605));
#1607=MANIFOLD_SOLID_BREP('wake (1)',#1606);
#1111=STYLED_ITEM('',(#613),#1607);
#91=SHAPE_REPRESENTATION('button3.68ark',(#15),#89);
#92=ADVANCED_BREP_SHAPE_REPRESENTATION('button3.68ark',(#606,#1110,#1607),#89);
#1615=SHAPE_REPRESENTATION_RELATIONSHIP('','',#91,#92);
#1616=CARTESIAN_POINT('',(0.,0.,0.));
#1617=DIRECTION('',(0.,0.,1.));
#1618=DIRECTION('',(1.,0.,0.));
#1619=AXIS2_PLACEMENT_3D('',#1616,#1617,#1618);
#1621=MAPPED_ITEM('',#1620,#1619);
#1620=REPRESENTATION_MAP(#1619,#91);
#1622=APPLICATION_CONTEXT('Managed model based 3d engineering');
#1623=APPLICATION_PROTOCOL_DEFINITION('international standard','ap242_managed_model_based_3d_engineering',2014,#1622);
#1624=PRODUCT_CONTEXT('',#1622,'mechanical');
#1625=PRODUCT_DEFINITION_CONTEXT('part definition',#1622,'design');
#99=PRODUCT('button3.68ark','button3.68ark','',(#1624));
#1626=PRODUCT_RELATED_PRODUCT_CATEGORY('part','',(#99));
#1627=PRODUCT_DEFINITION_FORMATION_WITH_SPECIFIED_SOURCE('','',#99,.NOT_KNOWN.);
#100=PRODUCT_DEFINITION('design','',#1627,#1625);
#98=PRODUCT_DEFINITION_SHAPE('','',#100);
#1628=SHAPE_DEFINITION_REPRESENTATION(#98,#91);
#90=DRAUGHTING_MODEL('',(#1621),#89);
#63=SHAPE_REPRESENTATION('\X2\6309952E\X0\',(#15,#104),#61);
#1629=CARTESIAN_POINT('',(0.,0.,0.));
#1630=DIRECTION('',(0.,0.,1.));
#1631=DIRECTION('',(1.,0.,0.));
#1632=AXIS2_PLACEMENT_3D('',#1629,#1630,#1631);
#1634=MAPPED_ITEM('',#1633,#1632);
#1633=REPRESENTATION_MAP(#1632,#63);
#71=PRODUCT('\X2\6309952E\X0\','\X2\6309952E\X0\','',(#1624));
#1635=PRODUCT_RELATED_PRODUCT_CATEGORY('part','',(#71));
#1636=PRODUCT_DEFINITION_FORMATION_WITH_SPECIFIED_SOURCE('','',#71,.NOT_KNOWN.);
#72=PRODUCT_DEFINITION('design','',#1636,#1625);
#70=PRODUCT_DEFINITION_SHAPE('','',#72);
#1637=SHAPE_DEFINITION_REPRESENTATION(#70,#63);
#62=DRAUGHTING_MODEL('',(#1634),#61);
#35=SHAPE_REPRESENTATION('FrameFilmPro \X2\FF085DF25BFC5165FF09\X0\',(#15,#76),#33);
#1638=CARTESIAN_POINT('',(0.,0.,0.));
#1639=DIRECTION('',(0.,0.,1.));
#1640=DIRECTION('',(1.,0.,0.));
#1641=AXIS2_PLACEMENT_3D('',#1638,#1639,#1640);
#1643=MAPPED_ITEM('',#1642,#1641);
#1642=REPRESENTATION_MAP(#1641,#35);
#43=PRODUCT('FrameFilmPro \X2\FF085DF25BFC5165FF09\X0\','FrameFilmPro \X2\FF085DF25BFC5165FF09\X0\','',(#1624));
#1644=PRODUCT_RELATED_PRODUCT_CATEGORY('part','',(#43));
#1645=PRODUCT_DEFINITION_FORMATION_WITH_SPECIFIED_SOURCE('','',#43,.NOT_KNOWN.);
#44=PRODUCT_DEFINITION('design','',#1645,#1625);
#42=PRODUCT_DEFINITION_SHAPE('','',#44);
#1646=SHAPE_DEFINITION_REPRESENTATION(#42,#35);
#34=DRAUGHTING_MODEL('',(#1643),#33);
#16=SHAPE_REPRESENTATION('root',(#15,#48),#10);
#1647=CARTESIAN_POINT('',(0.,0.,0.));
#1648=DIRECTION('',(0.,0.,1.));
#1649=DIRECTION('',(1.,0.,0.));
#1650=AXIS2_PLACEMENT_3D('',#1647,#1648,#1649);
#1652=MAPPED_ITEM('',#1651,#1650);
#1651=REPRESENTATION_MAP(#1650,#16);
#24=PRODUCT('root','root','',(#1624));
#1653=PRODUCT_RELATED_PRODUCT_CATEGORY('part','',(#24));
#1654=PRODUCT_DEFINITION_FORMATION_WITH_SPECIFIED_SOURCE('','',#24,.NOT_KNOWN.);
#25=PRODUCT_DEFINITION('design','',#1654,#1625);
#23=PRODUCT_DEFINITION_SHAPE('','',#25);
#1655=SHAPE_DEFINITION_REPRESENTATION(#23,#16);
#11=DRAUGHTING_MODEL('',(#1652),#10);
#1656=DESCRIPTIVE_REPRESENTATION_ITEM('KEY','/private/var/mobile/Containers/Data/Application/4BAA6A96-AB08-4434-80E5-6C712A65BC40/tmp/4D5DABB6-80AF-4312-A019-5B15D4260585.tmp');
#1657=PROPERTY_DEFINITION('KEY','',#25);
#1658=REPRESENTATION('',(#1656),#10);
#1659=PROPERTY_DEFINITION_REPRESENTATION(#1657,#1658);
#1660=GENERAL_PROPERTY('','KEY','');
#1661=GENERAL_PROPERTY_ASSOCIATION('','',#1660,#1657);
#1=MECHANICAL_DESIGN_GEOMETRIC_PRESENTATION_REPRESENTATION('',(#110,#614,#1111),#10);
ENDSEC;
END-ISO-10303-21;
